<svg width="595" height="373" viewBox="0 0 595 373" fill="none" xmlns="http://www.w3.org/2000/svg">
<path d="M68.7174 105.455V58.8647H85.0376C89.191 58.8647 92.577 59.0904 95.1954 59.5419C97.8139 59.9482 99.868 60.6705 101.358 61.7089C102.848 62.7021 103.909 64.1016 104.541 65.9074C105.218 67.6681 105.647 69.8803 105.827 72.5439C106.008 75.2075 106.098 78.4128 106.098 82.1599C106.098 85.907 106.008 89.1123 105.827 91.7759C105.647 94.4395 105.218 96.6742 104.541 98.4801C103.909 100.241 102.848 101.64 101.358 102.679C99.868 103.672 97.8139 104.394 95.1954 104.846C92.577 105.252 89.191 105.455 85.0376 105.455H68.7174ZM80.5005 96.3808H84.7667C86.6177 96.3808 88.1301 96.3356 89.3039 96.2454C90.4777 96.1099 91.4032 95.839 92.0803 95.4327C92.8027 94.9813 93.2993 94.2589 93.5702 93.2657C93.8862 92.2274 94.0668 90.8279 94.1119 89.0672C94.2022 87.2614 94.2473 84.9589 94.2473 82.1599C94.2473 79.3609 94.2022 77.081 94.1119 75.3203C94.0668 73.5145 93.8862 72.115 93.5702 71.1218C93.2541 70.0834 92.7575 69.3385 92.0803 68.8871C91.4032 68.4356 90.4777 68.1647 89.3039 68.0744C88.1301 67.9841 86.6177 67.939 84.7667 67.939H80.5005V96.3808ZM130.12 105.997C126.87 105.997 124.184 105.794 122.062 105.387C119.94 104.981 118.247 104.349 116.983 103.491C115.764 102.588 114.838 101.437 114.206 100.038C113.619 98.6381 113.236 96.9677 113.055 95.0264C112.92 93.0852 112.852 90.8279 112.852 88.2546C112.852 85.1395 112.987 82.4533 113.258 80.1961C113.574 77.9388 114.251 76.0878 115.29 74.6431C116.328 73.1985 117.931 72.1375 120.098 71.4604C122.31 70.738 125.29 70.3769 129.037 70.3769C132.061 70.3769 134.522 70.6026 136.418 71.054C138.314 71.4604 139.804 72.115 140.887 73.0179C142.016 73.8757 142.806 75.0043 143.258 76.4038C143.754 77.8033 144.07 79.4963 144.206 81.4827C144.341 83.424 144.409 85.6813 144.409 88.2546V90.8956H123.619C123.619 92.4305 123.687 93.672 123.822 94.6201C123.958 95.523 124.319 96.2002 124.906 96.6517C125.493 97.1031 126.396 97.4191 127.615 97.5997C128.834 97.7352 130.527 97.8029 132.694 97.8029C133.551 97.8029 134.567 97.7803 135.741 97.7352C136.915 97.69 138.134 97.6223 139.398 97.532C140.707 97.4417 141.926 97.3514 143.054 97.2611V104.846C142.061 105.071 140.842 105.274 139.398 105.455C137.998 105.636 136.486 105.771 134.86 105.861C133.235 105.952 131.655 105.997 130.12 105.997ZM134.183 86.3584V85.2749C134.183 83.6497 134.093 82.363 133.912 81.415C133.777 80.4669 133.506 79.7672 133.1 79.3157C132.739 78.8191 132.219 78.5031 131.542 78.3677C130.865 78.2322 130.007 78.1645 128.969 78.1645C127.795 78.1645 126.847 78.2548 126.125 78.4354C125.448 78.5708 124.928 78.8868 124.567 79.3834C124.206 79.88 123.958 80.6024 123.822 81.5504C123.687 82.4985 123.619 83.74 123.619 85.2749H135.335L134.183 86.3584ZM165.106 105.997C163.662 105.997 162.082 105.952 160.366 105.861C158.696 105.771 157.048 105.658 155.423 105.523C153.842 105.387 152.42 105.229 151.156 105.049V97.3966C151.879 97.4417 152.691 97.5094 153.594 97.5997C154.542 97.69 155.513 97.7577 156.506 97.8029C157.499 97.848 158.447 97.8932 159.35 97.9383C160.298 97.9383 161.156 97.9383 161.924 97.9383C164.045 97.9383 165.558 97.8706 166.461 97.7352C167.409 97.5997 167.996 97.3288 168.221 96.9225C168.492 96.4711 168.628 95.8842 168.628 95.1619C168.628 94.4395 168.537 93.9203 168.357 93.6043C168.221 93.2883 167.905 93.0626 167.409 92.9271C166.957 92.7917 166.167 92.6563 165.039 92.5208L156.98 91.5051C155.039 91.2342 153.572 90.6699 152.578 89.8121C151.585 88.9092 150.908 87.7128 150.547 86.223C150.231 84.688 150.073 82.9048 150.073 80.8732C150.073 78.4805 150.434 76.607 151.156 75.2526C151.879 73.8531 152.872 72.8147 154.136 72.1375C155.445 71.4152 156.98 70.9412 158.741 70.7155C160.547 70.4897 162.465 70.3769 164.497 70.3769C165.942 70.3769 167.431 70.422 168.966 70.5123C170.501 70.6026 171.969 70.738 173.368 70.9186C174.768 71.054 175.919 71.2121 176.822 71.3926V78.9771C175.693 78.8868 174.497 78.7965 173.233 78.7062C172.014 78.616 170.84 78.5482 169.711 78.5031C168.583 78.4579 167.635 78.4354 166.867 78.4354C165.061 78.4354 163.662 78.4805 162.668 78.5708C161.72 78.6611 161.066 78.8868 160.705 79.248C160.389 79.6092 160.231 80.1961 160.231 81.0087C160.231 81.6407 160.276 82.1373 160.366 82.4985C160.501 82.8145 160.795 83.0402 161.246 83.1757C161.698 83.3111 162.398 83.4465 163.346 83.582L171.472 84.5978C173.007 84.7783 174.316 85.1395 175.4 85.6813C176.483 86.223 177.296 87.1936 177.837 88.5932C178.424 89.9927 178.718 92.0919 178.718 94.891C178.718 97.4191 178.379 99.4281 177.702 100.918C177.07 102.363 176.144 103.469 174.926 104.236C173.707 104.958 172.262 105.433 170.592 105.658C168.966 105.884 167.138 105.997 165.106 105.997ZM201.674 105.997C198.424 105.997 195.738 105.794 193.616 105.387C191.494 104.981 189.801 104.349 188.537 103.491C187.318 102.588 186.393 101.437 185.761 100.038C185.174 98.6381 184.79 96.9677 184.609 95.0264C184.474 93.0852 184.406 90.8279 184.406 88.2546C184.406 85.1395 184.542 82.4533 184.812 80.1961C185.128 77.9388 185.806 76.0878 186.844 74.6431C187.882 73.1985 189.485 72.1375 191.652 71.4604C193.864 70.738 196.844 70.3769 200.591 70.3769C203.616 70.3769 206.076 70.6026 207.972 71.054C209.868 71.4604 211.358 72.115 212.442 73.0179C213.57 73.8757 214.36 75.0043 214.812 76.4038C215.308 77.8033 215.624 79.4963 215.76 81.4827C215.895 83.424 215.963 85.6813 215.963 88.2546V90.8956H195.173C195.173 92.4305 195.241 93.672 195.377 94.6201C195.512 95.523 195.873 96.2002 196.46 96.6517C197.047 97.1031 197.95 97.4191 199.169 97.5997C200.388 97.7352 202.081 97.8029 204.248 97.8029C205.105 97.8029 206.121 97.7803 207.295 97.7352C208.469 97.69 209.688 97.6223 210.952 97.532C212.261 97.4417 213.48 97.3514 214.609 97.2611V104.846C213.615 105.071 212.396 105.274 210.952 105.455C209.552 105.636 208.04 105.771 206.415 105.861C204.789 105.952 203.209 105.997 201.674 105.997ZM205.737 86.3584V85.2749C205.737 83.6497 205.647 82.363 205.467 81.415C205.331 80.4669 205.06 79.7672 204.654 79.3157C204.293 78.8191 203.774 78.5031 203.096 78.3677C202.419 78.2322 201.562 78.1645 200.523 78.1645C199.349 78.1645 198.401 78.2548 197.679 78.4354C197.002 78.5708 196.483 78.8868 196.121 79.3834C195.76 79.88 195.512 80.6024 195.377 81.5504C195.241 82.4985 195.173 83.74 195.173 85.2749H206.889L205.737 86.3584ZM223.252 105.455V70.9186H233.545L233.816 75.1172H234.426C235.103 73.9434 235.938 73.0179 236.931 72.3407C237.925 71.6184 239.053 71.1218 240.317 70.8509C241.581 70.5349 242.958 70.3769 244.448 70.3769C246.751 70.3769 248.579 70.6703 249.933 71.2572C251.333 71.8441 252.394 72.7019 253.116 73.8305C253.838 74.9591 254.313 76.3587 254.538 78.0291C254.809 79.6994 254.945 81.6407 254.945 83.8529V105.455H244.042V87.1711C244.042 85.3201 243.997 83.8754 243.906 82.8371C243.816 81.7536 243.613 80.9635 243.297 80.4669C242.981 79.9703 242.484 79.6769 241.807 79.5866C241.175 79.4511 240.317 79.3834 239.234 79.3834C238.105 79.3834 237.18 79.5189 236.457 79.7897C235.78 80.0155 235.261 80.4218 234.9 81.0087C234.584 81.5956 234.358 82.4308 234.223 83.5143C234.132 84.5526 234.087 85.8618 234.087 87.4419V105.455H223.252ZM270.372 105.455L259.944 70.9186H271.049L277.483 95.7713H278.16L284.39 70.9186H295.36L284.999 105.455H270.372ZM315.001 105.997C311.931 105.997 309.381 105.816 307.349 105.455C305.318 105.094 303.715 104.507 302.541 103.694C301.367 102.882 300.51 101.798 299.968 100.444C299.426 99.0895 299.065 97.3966 298.884 95.365C298.749 93.3335 298.681 90.9182 298.681 88.1191C298.681 85.3201 298.749 82.9274 298.884 80.941C299.065 78.9094 299.426 77.2164 299.968 75.8621C300.51 74.5077 301.367 73.4242 302.541 72.6116C303.715 71.7989 305.318 71.2346 307.349 70.9186C309.381 70.5574 311.931 70.3769 315.001 70.3769C318.116 70.3769 320.69 70.5574 322.721 70.9186C324.753 71.2346 326.356 71.7989 327.529 72.6116C328.703 73.4242 329.561 74.5077 330.103 75.8621C330.644 77.2164 330.983 78.9094 331.118 80.941C331.299 82.9274 331.389 85.3201 331.389 88.1191C331.389 90.9182 331.299 93.3335 331.118 95.365C330.983 97.3966 330.644 99.0895 330.103 100.444C329.561 101.798 328.703 102.882 327.529 103.694C326.356 104.507 324.753 105.094 322.721 105.455C320.69 105.816 318.116 105.997 315.001 105.997ZM315.001 97.7352C316.356 97.7352 317.417 97.6449 318.184 97.4643C318.952 97.2837 319.493 96.8774 319.809 96.2454C320.125 95.6133 320.306 94.6427 320.351 93.3335C320.441 92.0242 320.487 90.2861 320.487 88.1191C320.487 85.9521 320.441 84.2366 320.351 82.9725C320.306 81.7084 320.125 80.7604 319.809 80.1283C319.493 79.4963 318.952 79.09 318.184 78.9094C317.417 78.7288 316.356 78.6385 315.001 78.6385C313.647 78.6385 312.586 78.7288 311.819 78.9094C311.096 79.09 310.577 79.4963 310.261 80.1283C309.945 80.7604 309.742 81.7084 309.652 82.9725C309.606 84.2366 309.584 85.9521 309.584 88.1191C309.584 90.2861 309.606 92.0242 309.652 93.3335C309.742 94.6427 309.945 95.6133 310.261 96.2454C310.577 96.8774 311.096 97.2837 311.819 97.4643C312.586 97.6449 313.647 97.7352 315.001 97.7352ZM338.652 105.455V55.1402H349.622V105.455H338.652ZM365.139 105.455L354.71 70.9186H365.816L372.249 95.7713H372.926L379.156 70.9186H390.127L379.766 105.455H365.139ZM410.716 105.997C407.465 105.997 404.779 105.794 402.657 105.387C400.535 104.981 398.842 104.349 397.578 103.491C396.359 102.588 395.434 101.437 394.802 100.038C394.215 98.6381 393.831 96.9677 393.651 95.0264C393.515 93.0852 393.448 90.8279 393.448 88.2546C393.448 85.1395 393.583 82.4533 393.854 80.1961C394.17 77.9388 394.847 76.0878 395.885 74.6431C396.924 73.1985 398.526 72.1375 400.693 71.4604C402.906 70.738 405.885 70.3769 409.632 70.3769C412.657 70.3769 415.117 70.6026 417.014 71.054C418.91 71.4604 420.4 72.115 421.483 73.0179C422.612 73.8757 423.402 75.0043 423.853 76.4038C424.35 77.8033 424.666 79.4963 424.801 81.4827C424.937 83.424 425.004 85.6813 425.004 88.2546V90.8956H404.215C404.215 92.4305 404.283 93.672 404.418 94.6201C404.553 95.523 404.915 96.2002 405.501 96.6517C406.088 97.1031 406.991 97.4191 408.21 97.5997C409.429 97.7352 411.122 97.8029 413.289 97.8029C414.147 97.8029 415.163 97.7803 416.336 97.7352C417.51 97.69 418.729 97.6223 419.993 97.532C421.302 97.4417 422.521 97.3514 423.65 97.2611V104.846C422.657 105.071 421.438 105.274 419.993 105.455C418.594 105.636 417.081 105.771 415.456 105.861C413.831 105.952 412.251 105.997 410.716 105.997ZM414.779 86.3584V85.2749C414.779 83.6497 414.689 82.363 414.508 81.415C414.373 80.4669 414.102 79.7672 413.695 79.3157C413.334 78.8191 412.815 78.5031 412.138 78.3677C411.461 78.2322 410.603 78.1645 409.565 78.1645C408.391 78.1645 407.443 78.2548 406.72 78.4354C406.043 78.5708 405.524 78.8868 405.163 79.3834C404.802 79.88 404.553 80.6024 404.418 81.5504C404.283 82.4985 404.215 83.74 404.215 85.2749H415.93L414.779 86.3584ZM432.294 105.455V70.9186H442.587L442.858 75.1172H443.467C444.144 73.9434 444.98 73.0179 445.973 72.3407C446.966 71.6184 448.095 71.1218 449.359 70.8509C450.623 70.5349 452 70.3769 453.49 70.3769C455.792 70.3769 457.62 70.6703 458.975 71.2572C460.374 71.8441 461.435 72.7019 462.158 73.8305C462.88 74.9591 463.354 76.3587 463.58 78.0291C463.851 79.6994 463.986 81.6407 463.986 83.8529V105.455H453.083V87.1711C453.083 85.3201 453.038 83.8754 452.948 82.8371C452.858 81.7536 452.654 80.9635 452.338 80.4669C452.022 79.9703 451.526 79.6769 450.849 79.5866C450.217 79.4511 449.359 79.3834 448.275 79.3834C447.147 79.3834 446.221 79.5189 445.499 79.7897C444.822 80.0155 444.302 80.4218 443.941 81.0087C443.625 81.5956 443.4 82.4308 443.264 83.5143C443.174 84.5526 443.129 85.8618 443.129 87.4419V105.455H432.294ZM482.461 105.997C480.475 105.997 478.759 105.726 477.314 105.184C475.87 104.642 474.696 103.717 473.793 102.408C472.89 101.053 472.213 99.225 471.761 96.9225C471.355 94.6201 471.152 91.7308 471.152 88.2546C471.152 84.8235 471.355 81.9567 471.761 79.6543C472.168 77.3067 472.822 75.4783 473.725 74.1691C474.628 72.8147 475.779 71.8441 477.179 71.2572C478.624 70.6703 480.362 70.3769 482.393 70.3769C483.748 70.3769 485.012 70.4897 486.185 70.7155C487.404 70.9412 488.51 71.3475 489.504 71.9344C490.497 72.5213 491.355 73.4016 492.077 74.5754H492.619V55.1402H503.521V105.455H493.16L492.89 101.324H492.348C491.671 102.633 490.79 103.627 489.707 104.304C488.668 104.936 487.517 105.365 486.253 105.591C485.034 105.861 483.77 105.997 482.461 105.997ZM487.337 97.058C488.736 97.058 489.775 96.9 490.452 96.5839C491.174 96.2228 491.693 95.5907 492.009 94.6878C492.28 93.8752 492.438 92.9497 492.483 91.9114C492.574 90.8279 492.619 89.5864 492.619 88.1868C492.619 86.7873 492.574 85.5684 492.483 84.53C492.438 83.4917 492.28 82.6113 492.009 81.889C491.738 80.8958 491.242 80.2186 490.519 79.8575C489.797 79.4963 488.736 79.3157 487.337 79.3157C486.118 79.3157 485.147 79.406 484.425 79.5866C483.702 79.7672 483.161 80.1509 482.8 80.7378C482.484 81.2795 482.28 82.1373 482.19 83.3111C482.1 84.4849 482.055 86.1101 482.055 88.1868C482.055 90.2635 482.1 91.9114 482.19 93.1303C482.28 94.3041 482.484 95.1844 482.8 95.7713C483.161 96.3131 483.702 96.6742 484.425 96.8548C485.147 96.9903 486.118 97.058 487.337 97.058ZM527.085 105.997C524.015 105.997 521.464 105.816 519.433 105.455C517.401 105.094 515.798 104.507 514.625 103.694C513.451 102.882 512.593 101.798 512.051 100.444C511.51 99.0895 511.148 97.3966 510.968 95.365C510.832 93.3335 510.765 90.9182 510.765 88.1191C510.765 85.3201 510.832 82.9274 510.968 80.941C511.148 78.9094 511.51 77.2164 512.051 75.8621C512.593 74.5077 513.451 73.4242 514.625 72.6116C515.798 71.7989 517.401 71.2346 519.433 70.9186C521.464 70.5574 524.015 70.3769 527.085 70.3769C530.2 70.3769 532.773 70.5574 534.805 70.9186C536.836 71.2346 538.439 71.7989 539.613 72.6116C540.787 73.4242 541.644 74.5077 542.186 75.8621C542.728 77.2164 543.066 78.9094 543.202 80.941C543.382 82.9274 543.473 85.3201 543.473 88.1191C543.473 90.9182 543.382 93.3335 543.202 95.365C543.066 97.3966 542.728 99.0895 542.186 100.444C541.644 101.798 540.787 102.882 539.613 103.694C538.439 104.507 536.836 105.094 534.805 105.455C532.773 105.816 530.2 105.997 527.085 105.997ZM527.085 97.7352C528.439 97.7352 529.5 97.6449 530.268 97.4643C531.035 97.2837 531.577 96.8774 531.893 96.2454C532.209 95.6133 532.389 94.6427 532.435 93.3335C532.525 92.0242 532.57 90.2861 532.57 88.1191C532.57 85.9521 532.525 84.2366 532.435 82.9725C532.389 81.7084 532.209 80.7604 531.893 80.1283C531.577 79.4963 531.035 79.09 530.268 78.9094C529.5 78.7288 528.439 78.6385 527.085 78.6385C525.73 78.6385 524.67 78.7288 523.902 78.9094C523.18 79.09 522.661 79.4963 522.345 80.1283C522.029 80.7604 521.825 81.7084 521.735 82.9725C521.69 84.2366 521.667 85.9521 521.667 88.1191C521.667 90.2861 521.69 92.0242 521.735 93.3335C521.825 94.6427 522.029 95.6133 522.345 96.2454C522.661 96.8774 523.18 97.2837 523.902 97.4643C524.67 97.6449 525.73 97.7352 527.085 97.7352ZM67.9725 138.876V130.14H79.1461V138.876H67.9725ZM68.108 180.455V145.919H79.0784V180.455H68.108ZM97.6423 180.997C95.6559 180.997 93.9403 180.726 92.4957 180.184C91.051 179.642 89.8772 178.717 88.9743 177.408C88.0714 176.053 87.3942 174.225 86.9427 171.923C86.5364 169.62 86.3333 166.731 86.3333 163.255C86.3333 159.823 86.5364 156.957 86.9427 154.654C87.349 152.307 88.0037 150.478 88.9066 149.169C89.8095 147.815 90.9607 146.844 92.3602 146.257C93.8049 145.67 95.543 145.377 97.5745 145.377C98.9289 145.377 100.193 145.49 101.367 145.715C102.586 145.941 103.692 146.347 104.685 146.934C105.678 147.521 106.536 148.402 107.258 149.575H107.8V130.14H118.703V180.455H108.342L108.071 176.324H107.529C106.852 177.633 105.972 178.627 104.888 179.304C103.85 179.936 102.699 180.365 101.435 180.591C100.216 180.861 98.9515 180.997 97.6423 180.997ZM102.518 172.058C103.918 172.058 104.956 171.9 105.633 171.584C106.355 171.223 106.875 170.591 107.191 169.688C107.461 168.875 107.619 167.95 107.665 166.911C107.755 165.828 107.8 164.586 107.8 163.187C107.8 161.787 107.755 160.568 107.665 159.53C107.619 158.492 107.461 157.611 107.191 156.889C106.92 155.896 106.423 155.219 105.701 154.857C104.978 154.496 103.918 154.316 102.518 154.316C101.299 154.316 100.328 154.406 99.6061 154.587C98.8838 154.767 98.342 155.151 97.9809 155.738C97.6648 156.28 97.4617 157.137 97.3714 158.311C97.2811 159.485 97.236 161.11 97.236 163.187C97.236 165.264 97.2811 166.911 97.3714 168.13C97.4617 169.304 97.6648 170.184 97.9809 170.771C98.342 171.313 98.8838 171.674 99.6061 171.855C100.328 171.99 101.299 172.058 102.518 172.058ZM143.214 180.997C139.964 180.997 137.278 180.794 135.156 180.387C133.034 179.981 131.341 179.349 130.077 178.491C128.858 177.588 127.932 176.437 127.3 175.038C126.713 173.638 126.33 171.968 126.149 170.026C126.014 168.085 125.946 165.828 125.946 163.255C125.946 160.14 126.081 157.453 126.352 155.196C126.668 152.939 127.345 151.088 128.384 149.643C129.422 148.198 131.025 147.138 133.192 146.46C135.404 145.738 138.384 145.377 142.131 145.377C145.155 145.377 147.616 145.603 149.512 146.054C151.408 146.46 152.898 147.115 153.981 148.018C155.11 148.876 155.9 150.004 156.352 151.404C156.848 152.803 157.164 154.496 157.3 156.483C157.435 158.424 157.503 160.681 157.503 163.255V165.896H136.713C136.713 167.431 136.781 168.672 136.916 169.62C137.052 170.523 137.413 171.2 138 171.652C138.587 172.103 139.49 172.419 140.709 172.6C141.928 172.735 143.621 172.803 145.788 172.803C146.645 172.803 147.661 172.78 148.835 172.735C150.009 172.69 151.228 172.622 152.492 172.532C153.801 172.442 155.02 172.351 156.148 172.261V179.846C155.155 180.071 153.936 180.274 152.492 180.455C151.092 180.636 149.58 180.771 147.955 180.861C146.329 180.952 144.749 180.997 143.214 180.997ZM147.277 161.358V160.275C147.277 158.65 147.187 157.363 147.006 156.415C146.871 155.467 146.6 154.767 146.194 154.316C145.833 153.819 145.313 153.503 144.636 153.368C143.959 153.232 143.101 153.164 142.063 153.164C140.889 153.164 139.941 153.255 139.219 153.435C138.542 153.571 138.022 153.887 137.661 154.383C137.3 154.88 137.052 155.602 136.916 156.55C136.781 157.498 136.713 158.74 136.713 160.275H148.429L147.277 161.358ZM164.657 138.876V130.14H175.83V138.876H164.657ZM164.792 180.455V145.919H175.763V180.455H164.792ZM192.566 180.997C190.399 180.997 188.57 180.658 187.081 179.981C185.591 179.304 184.462 178.198 183.695 176.663C182.972 175.128 182.611 173.119 182.611 170.636C182.611 168.017 182.905 165.941 183.491 164.406C184.123 162.826 185.23 161.697 186.81 161.02C188.39 160.343 190.624 160.004 193.514 160.004C193.92 160.004 194.484 160.027 195.207 160.072C195.974 160.072 196.832 160.094 197.78 160.14C198.728 160.14 199.676 160.162 200.624 160.207C201.572 160.207 202.43 160.23 203.198 160.275V158.988C203.198 157.679 203.085 156.663 202.859 155.941C202.678 155.219 202.295 154.699 201.708 154.383C201.166 154.022 200.331 153.819 199.202 153.774C198.073 153.684 196.584 153.639 194.733 153.639C193.694 153.639 192.543 153.661 191.279 153.706C190.06 153.751 188.841 153.819 187.622 153.909C186.448 153.955 185.455 154.022 184.643 154.113V146.46C186.494 146.144 188.57 145.896 190.873 145.715C193.22 145.49 195.681 145.377 198.254 145.377C201.143 145.377 203.536 145.557 205.432 145.919C207.374 146.28 208.931 146.844 210.105 147.612C211.279 148.334 212.136 149.259 212.678 150.388C213.265 151.517 213.649 152.848 213.829 154.383C214.01 155.918 214.1 157.656 214.1 159.598V180.455H203.672L203.401 176.392H202.859C202.001 177.746 201.008 178.762 199.879 179.439C198.751 180.116 197.554 180.545 196.29 180.726C195.026 180.907 193.785 180.997 192.566 180.997ZM197.712 173.277C198.525 173.277 199.225 173.232 199.812 173.141C200.444 173.006 200.963 172.803 201.369 172.532C201.821 172.216 202.182 171.832 202.453 171.381C202.678 170.884 202.859 170.275 202.994 169.552C203.13 168.83 203.198 167.972 203.198 166.979V165.692H196.9C195.771 165.692 194.913 165.783 194.326 165.963C193.739 166.099 193.333 166.46 193.107 167.047C192.927 167.589 192.837 168.446 192.837 169.62C192.837 170.613 192.949 171.381 193.175 171.923C193.401 172.464 193.852 172.825 194.53 173.006C195.252 173.187 196.313 173.277 197.712 173.277ZM235.933 180.997C234.488 180.997 232.908 180.952 231.193 180.861C229.522 180.771 227.875 180.658 226.249 180.523C224.669 180.387 223.247 180.229 221.983 180.049V172.397C222.705 172.442 223.518 172.509 224.421 172.6C225.369 172.69 226.34 172.758 227.333 172.803C228.326 172.848 229.274 172.893 230.177 172.938C231.125 172.938 231.983 172.938 232.75 172.938C234.872 172.938 236.385 172.871 237.287 172.735C238.236 172.6 238.822 172.329 239.048 171.923C239.319 171.471 239.454 170.884 239.454 170.162C239.454 169.44 239.364 168.92 239.184 168.604C239.048 168.288 238.732 168.063 238.236 167.927C237.784 167.792 236.994 167.656 235.865 167.521L227.807 166.505C225.866 166.234 224.398 165.67 223.405 164.812C222.412 163.909 221.735 162.713 221.374 161.223C221.058 159.688 220.9 157.905 220.9 155.873C220.9 153.481 221.261 151.607 221.983 150.253C222.705 148.853 223.699 147.815 224.963 147.138C226.272 146.415 227.807 145.941 229.568 145.715C231.373 145.49 233.292 145.377 235.324 145.377C236.768 145.377 238.258 145.422 239.793 145.512C241.328 145.603 242.795 145.738 244.195 145.919C245.594 146.054 246.746 146.212 247.648 146.393V153.977C246.52 153.887 245.323 153.797 244.059 153.706C242.84 153.616 241.667 153.548 240.538 153.503C239.409 153.458 238.461 153.435 237.694 153.435C235.888 153.435 234.488 153.481 233.495 153.571C232.547 153.661 231.893 153.887 231.531 154.248C231.215 154.609 231.057 155.196 231.057 156.009C231.057 156.641 231.103 157.137 231.193 157.498C231.328 157.815 231.622 158.04 232.073 158.176C232.525 158.311 233.224 158.447 234.172 158.582L242.299 159.598C243.834 159.778 245.143 160.14 246.226 160.681C247.31 161.223 248.122 162.194 248.664 163.593C249.251 164.993 249.545 167.092 249.545 169.891C249.545 172.419 249.206 174.428 248.529 175.918C247.897 177.363 246.971 178.469 245.752 179.236C244.533 179.958 243.089 180.433 241.418 180.658C239.793 180.884 237.965 180.997 235.933 180.997ZM255.978 190.41V186.076C257.332 186.076 258.325 185.94 258.957 185.669C259.635 185.444 260.086 184.992 260.312 184.315C260.583 183.683 260.718 182.758 260.718 181.539V180.455H256.52V170.636H268.099V177.949C268.099 180.433 267.964 182.487 267.693 184.112C267.422 185.737 266.88 187.001 266.068 187.904C265.255 188.852 264.036 189.507 262.411 189.868C260.786 190.229 258.641 190.41 255.978 190.41Z" fill="#E5E5E5"/>
<path d="M173.536 251.088C170.647 251.088 168.277 250.839 166.426 250.343C164.575 249.801 163.108 249.056 162.024 248.108C160.941 247.115 160.15 245.896 159.654 244.451C159.157 243.007 158.841 241.359 158.706 239.508C158.57 237.612 158.503 235.535 158.503 233.278C158.503 231.066 158.57 229.034 158.706 227.183C158.841 225.332 159.18 223.684 159.722 222.24C160.263 220.75 161.053 219.508 162.092 218.515C163.175 217.522 164.62 216.777 166.426 216.28C168.277 215.739 170.624 215.468 173.468 215.468C175.274 215.468 177.08 215.558 178.886 215.739C180.737 215.919 182.385 216.19 183.829 216.551V224.203C182.926 224.068 181.753 223.955 180.308 223.865C178.909 223.774 177.599 223.729 176.38 223.729C174.8 223.729 173.559 223.865 172.656 224.136C171.753 224.361 171.076 224.813 170.624 225.49C170.173 226.122 169.857 227.07 169.676 228.334C169.541 229.598 169.473 231.246 169.473 233.278C169.473 235.309 169.541 236.98 169.676 238.289C169.857 239.553 170.173 240.524 170.624 241.201C171.076 241.833 171.775 242.262 172.724 242.487C173.672 242.713 174.913 242.826 176.448 242.826C177.532 242.826 178.751 242.781 180.105 242.691C181.504 242.6 182.836 242.487 184.1 242.352V250.004C182.61 250.32 180.918 250.568 179.021 250.749C177.125 250.975 175.297 251.088 173.536 251.088ZM206.169 251.088C203.099 251.088 200.548 250.907 198.517 250.546C196.485 250.185 194.883 249.598 193.709 248.785C192.535 247.973 191.677 246.889 191.136 245.535C190.594 244.18 190.233 242.487 190.052 240.456C189.917 238.424 189.849 236.009 189.849 233.21C189.849 230.411 189.917 228.018 190.052 226.032C190.233 224 190.594 222.307 191.136 220.953C191.677 219.599 192.535 218.515 193.709 217.702C194.883 216.89 196.485 216.325 198.517 216.009C200.548 215.648 203.099 215.468 206.169 215.468C209.284 215.468 211.857 215.648 213.889 216.009C215.921 216.325 217.523 216.89 218.697 217.702C219.871 218.515 220.729 219.599 221.27 220.953C221.812 222.307 222.151 224 222.286 226.032C222.467 228.018 222.557 230.411 222.557 233.21C222.557 236.009 222.467 238.424 222.286 240.456C222.151 242.487 221.812 244.18 221.27 245.535C220.729 246.889 219.871 247.973 218.697 248.785C217.523 249.598 215.921 250.185 213.889 250.546C211.857 250.907 209.284 251.088 206.169 251.088ZM206.169 242.826C207.523 242.826 208.584 242.736 209.352 242.555C210.119 242.375 210.661 241.968 210.977 241.336C211.293 240.704 211.474 239.734 211.519 238.424C211.609 237.115 211.654 235.377 211.654 233.21C211.654 231.043 211.609 229.327 211.519 228.063C211.474 226.799 211.293 225.851 210.977 225.219C210.661 224.587 210.119 224.181 209.352 224C208.584 223.82 207.523 223.729 206.169 223.729C204.815 223.729 203.754 223.82 202.986 224C202.264 224.181 201.745 224.587 201.429 225.219C201.113 225.851 200.91 226.799 200.819 228.063C200.774 229.327 200.752 231.043 200.752 233.21C200.752 235.377 200.774 237.115 200.819 238.424C200.91 239.734 201.113 240.704 201.429 241.336C201.745 241.968 202.264 242.375 202.986 242.555C203.754 242.736 204.815 242.826 206.169 242.826ZM229.819 250.546V216.009H240.113L240.383 220.208H240.993C241.67 219.034 242.505 218.109 243.498 217.432C244.492 216.709 245.62 216.213 246.884 215.942C248.148 215.626 249.525 215.468 251.015 215.468C253.318 215.468 255.146 215.761 256.5 216.348C257.9 216.935 258.961 217.793 259.683 218.921C260.406 220.05 260.88 221.449 261.105 223.12C261.376 224.79 261.512 226.732 261.512 228.944V250.546H250.609V232.262C250.609 230.411 250.564 228.966 250.473 227.928C250.383 226.844 250.18 226.054 249.864 225.558C249.548 225.061 249.051 224.768 248.374 224.677C247.742 224.542 246.884 224.474 245.801 224.474C244.672 224.474 243.747 224.61 243.024 224.881C242.347 225.106 241.828 225.513 241.467 226.099C241.151 226.686 240.925 227.522 240.79 228.605C240.699 229.643 240.654 230.953 240.654 232.533V250.546H229.819ZM283.237 251.088C281.792 251.088 280.212 251.043 278.497 250.952C276.826 250.862 275.179 250.749 273.553 250.614C271.973 250.478 270.551 250.32 269.287 250.14V242.487C270.009 242.533 270.822 242.6 271.725 242.691C272.673 242.781 273.644 242.849 274.637 242.894C275.63 242.939 276.578 242.984 277.481 243.029C278.429 243.029 279.287 243.029 280.054 243.029C282.176 243.029 283.689 242.961 284.591 242.826C285.54 242.691 286.126 242.42 286.352 242.013C286.623 241.562 286.758 240.975 286.758 240.253C286.758 239.53 286.668 239.011 286.488 238.695C286.352 238.379 286.036 238.153 285.54 238.018C285.088 237.883 284.298 237.747 283.169 237.612L275.111 236.596C273.17 236.325 271.702 235.761 270.709 234.903C269.716 234 269.039 232.804 268.678 231.314C268.362 229.779 268.204 227.996 268.204 225.964C268.204 223.571 268.565 221.698 269.287 220.343C270.009 218.944 271.003 217.906 272.267 217.228C273.576 216.506 275.111 216.032 276.872 215.806C278.677 215.581 280.596 215.468 282.628 215.468C284.072 215.468 285.562 215.513 287.097 215.603C288.632 215.693 290.099 215.829 291.499 216.009C292.898 216.145 294.049 216.303 294.952 216.483V224.068C293.824 223.978 292.627 223.887 291.363 223.797C290.144 223.707 288.971 223.639 287.842 223.594C286.713 223.549 285.765 223.526 284.998 223.526C283.192 223.526 281.792 223.571 280.799 223.662C279.851 223.752 279.197 223.978 278.835 224.339C278.519 224.7 278.361 225.287 278.361 226.099C278.361 226.732 278.406 227.228 278.497 227.589C278.632 227.905 278.926 228.131 279.377 228.266C279.829 228.402 280.528 228.537 281.476 228.673L289.603 229.689C291.138 229.869 292.447 230.23 293.53 230.772C294.614 231.314 295.426 232.284 295.968 233.684C296.555 235.083 296.849 237.183 296.849 239.982C296.849 242.51 296.51 244.519 295.833 246.009C295.201 247.453 294.275 248.559 293.056 249.327C291.837 250.049 290.393 250.523 288.722 250.749C287.097 250.975 285.269 251.088 283.237 251.088ZM306.811 250.546V224.271H300.513V216.009H306.811V205.987H317.781V216.009H325.298V224.271H317.781V250.546H306.811ZM330.934 250.546V216.009H341.227L341.498 221.901H342.108C342.74 220.231 343.53 218.921 344.478 217.973C345.471 217.025 346.668 216.371 348.067 216.009C349.467 215.648 351.092 215.468 352.943 215.468V225.422C350.099 225.422 347.864 225.783 346.239 226.506C344.613 227.228 343.462 228.47 342.785 230.23C342.108 231.946 341.769 234.361 341.769 237.476V250.546H330.934ZM369.206 251.088C366.903 251.088 365.052 250.794 363.653 250.207C362.253 249.62 361.192 248.763 360.47 247.634C359.748 246.505 359.274 245.106 359.048 243.435C358.822 241.765 358.709 239.824 358.709 237.612V216.009H369.544V234.293C369.544 236.144 369.59 237.612 369.68 238.695C369.815 239.733 370.041 240.501 370.357 240.998C370.673 241.494 371.147 241.81 371.779 241.946C372.411 242.036 373.269 242.081 374.352 242.081C375.526 242.081 376.452 241.968 377.129 241.742C377.851 241.472 378.37 241.043 378.686 240.456C379.002 239.869 379.206 239.056 379.296 238.018C379.431 236.934 379.499 235.603 379.499 234.023V216.009H390.402V250.546H380.041L379.77 246.347H379.16C378.528 247.521 377.716 248.469 376.723 249.192C375.729 249.869 374.601 250.343 373.337 250.614C372.073 250.93 370.696 251.088 369.206 251.088ZM398.583 208.967V200.231H409.757V208.967H398.583ZM398.719 250.546V216.009H409.689V250.546H398.719ZM418.095 250.546V216.009H428.389L428.66 220.208H429.269C429.946 219.034 430.781 218.109 431.775 217.432C432.768 216.709 433.896 216.213 435.161 215.942C436.425 215.626 437.802 215.468 439.291 215.468C441.594 215.468 443.422 215.761 444.777 216.348C446.176 216.935 447.237 217.793 447.959 218.921C448.682 220.05 449.156 221.449 449.381 223.12C449.652 224.79 449.788 226.732 449.788 228.944V250.546H438.885V232.262C438.885 230.411 438.84 228.966 438.75 227.928C438.659 226.844 438.456 226.054 438.14 225.558C437.824 225.061 437.328 224.768 436.65 224.677C436.018 224.542 435.161 224.474 434.077 224.474C432.948 224.474 432.023 224.61 431.301 224.881C430.623 225.106 430.104 225.513 429.743 226.099C429.427 226.686 429.201 227.522 429.066 228.605C428.976 229.643 428.93 230.953 428.93 232.533V250.546H418.095ZM468.263 251.088C466.276 251.088 464.561 250.817 463.116 250.275C461.671 249.733 460.498 248.808 459.595 247.499C458.692 246.144 458.015 244.316 457.563 242.013C457.157 239.711 456.954 236.822 456.954 233.345C456.954 229.914 457.157 227.048 457.563 224.745C457.97 222.398 458.624 220.569 459.527 219.26C460.43 217.906 461.581 216.935 462.981 216.348C464.425 215.761 466.163 215.468 468.195 215.468C469.549 215.468 470.813 215.581 471.987 215.806C473.206 216.032 474.312 216.438 475.305 217.025C476.299 217.612 477.156 218.492 477.879 219.666H478.421V200.231H489.323V250.546H478.962L478.691 246.415H478.15C477.472 247.724 476.592 248.717 475.509 249.395C474.47 250.027 473.319 250.456 472.055 250.681C470.836 250.952 469.572 251.088 468.263 251.088ZM473.138 242.149C474.538 242.149 475.576 241.991 476.254 241.675C476.976 241.314 477.495 240.682 477.811 239.779C478.082 238.966 478.24 238.041 478.285 237.002C478.375 235.919 478.421 234.677 478.421 233.278C478.421 231.878 478.375 230.659 478.285 229.621C478.24 228.583 478.082 227.702 477.811 226.98C477.54 225.987 477.044 225.309 476.321 224.948C475.599 224.587 474.538 224.407 473.138 224.407C471.92 224.407 470.949 224.497 470.227 224.677C469.504 224.858 468.962 225.242 468.601 225.829C468.285 226.37 468.082 227.228 467.992 228.402C467.902 229.576 467.856 231.201 467.856 233.278C467.856 235.354 467.902 237.002 467.992 238.221C468.082 239.395 468.285 240.275 468.601 240.862C468.962 241.404 469.504 241.765 470.227 241.946C470.949 242.081 471.92 242.149 473.138 242.149ZM512.887 251.088C509.817 251.088 507.266 250.907 505.234 250.546C503.203 250.185 501.6 249.598 500.426 248.785C499.253 247.973 498.395 246.889 497.853 245.535C497.311 244.18 496.95 242.487 496.77 240.456C496.634 238.424 496.566 236.009 496.566 233.21C496.566 230.411 496.634 228.018 496.77 226.032C496.95 224 497.311 222.307 497.853 220.953C498.395 219.599 499.253 218.515 500.426 217.702C501.6 216.89 503.203 216.325 505.234 216.009C507.266 215.648 509.817 215.468 512.887 215.468C516.002 215.468 518.575 215.648 520.607 216.009C522.638 216.325 524.241 216.89 525.415 217.702C526.588 218.515 527.446 219.599 527.988 220.953C528.53 222.307 528.868 224 529.004 226.032C529.184 228.018 529.275 230.411 529.275 233.21C529.275 236.009 529.184 238.424 529.004 240.456C528.868 242.487 528.53 244.18 527.988 245.535C527.446 246.889 526.588 247.973 525.415 248.785C524.241 249.598 522.638 250.185 520.607 250.546C518.575 250.907 516.002 251.088 512.887 251.088ZM512.887 242.826C514.241 242.826 515.302 242.736 516.069 242.555C516.837 242.375 517.379 241.968 517.695 241.336C518.011 240.704 518.191 239.734 518.236 238.424C518.327 237.115 518.372 235.377 518.372 233.21C518.372 231.043 518.327 229.327 518.236 228.063C518.191 226.799 518.011 225.851 517.695 225.219C517.379 224.587 516.837 224.181 516.069 224C515.302 223.82 514.241 223.729 512.887 223.729C511.532 223.729 510.471 223.82 509.704 224C508.982 224.181 508.462 224.587 508.146 225.219C507.83 225.851 507.627 226.799 507.537 228.063C507.492 229.327 507.469 231.043 507.469 233.21C507.469 235.377 507.492 237.115 507.537 238.424C507.627 239.734 507.83 240.704 508.146 241.336C508.462 241.968 508.982 242.375 509.704 242.555C510.471 242.736 511.532 242.826 512.887 242.826ZM173.536 326.088C170.647 326.088 168.277 325.839 166.426 325.343C164.575 324.801 163.108 324.056 162.024 323.108C160.941 322.115 160.15 320.896 159.654 319.451C159.157 318.007 158.841 316.359 158.706 314.508C158.57 312.612 158.503 310.535 158.503 308.278C158.503 306.066 158.57 304.034 158.706 302.183C158.841 300.332 159.18 298.684 159.722 297.24C160.263 295.75 161.053 294.508 162.092 293.515C163.175 292.522 164.62 291.777 166.426 291.28C168.277 290.739 170.624 290.468 173.468 290.468C175.274 290.468 177.08 290.558 178.886 290.739C180.737 290.919 182.385 291.19 183.829 291.551V299.203C182.926 299.068 181.753 298.955 180.308 298.865C178.909 298.774 177.599 298.729 176.38 298.729C174.8 298.729 173.559 298.865 172.656 299.136C171.753 299.361 171.076 299.813 170.624 300.49C170.173 301.122 169.857 302.07 169.676 303.334C169.541 304.598 169.473 306.246 169.473 308.278C169.473 310.309 169.541 311.98 169.676 313.289C169.857 314.553 170.173 315.524 170.624 316.201C171.076 316.833 171.775 317.262 172.724 317.487C173.672 317.713 174.913 317.826 176.448 317.826C177.532 317.826 178.751 317.781 180.105 317.691C181.504 317.6 182.836 317.487 184.1 317.352V325.004C182.61 325.32 180.918 325.568 179.021 325.749C177.125 325.975 175.297 326.088 173.536 326.088ZM206.169 326.088C203.099 326.088 200.548 325.907 198.517 325.546C196.485 325.185 194.883 324.598 193.709 323.785C192.535 322.973 191.677 321.889 191.136 320.535C190.594 319.18 190.233 317.487 190.052 315.456C189.917 313.424 189.849 311.009 189.849 308.21C189.849 305.411 189.917 303.018 190.052 301.032C190.233 299 190.594 297.307 191.136 295.953C191.677 294.599 192.535 293.515 193.709 292.702C194.883 291.89 196.485 291.325 198.517 291.009C200.548 290.648 203.099 290.468 206.169 290.468C209.284 290.468 211.857 290.648 213.889 291.009C215.921 291.325 217.523 291.89 218.697 292.702C219.871 293.515 220.729 294.599 221.27 295.953C221.812 297.307 222.151 299 222.286 301.032C222.467 303.018 222.557 305.411 222.557 308.21C222.557 311.009 222.467 313.424 222.286 315.456C222.151 317.487 221.812 319.18 221.27 320.535C220.729 321.889 219.871 322.973 218.697 323.785C217.523 324.598 215.921 325.185 213.889 325.546C211.857 325.907 209.284 326.088 206.169 326.088ZM206.169 317.826C207.523 317.826 208.584 317.736 209.352 317.555C210.119 317.375 210.661 316.968 210.977 316.336C211.293 315.704 211.474 314.734 211.519 313.424C211.609 312.115 211.654 310.377 211.654 308.21C211.654 306.043 211.609 304.327 211.519 303.063C211.474 301.799 211.293 300.851 210.977 300.219C210.661 299.587 210.119 299.181 209.352 299C208.584 298.82 207.523 298.729 206.169 298.729C204.815 298.729 203.754 298.82 202.986 299C202.264 299.181 201.745 299.587 201.429 300.219C201.113 300.851 200.91 301.799 200.819 303.063C200.774 304.327 200.752 306.043 200.752 308.21C200.752 310.377 200.774 312.115 200.819 313.424C200.91 314.734 201.113 315.704 201.429 316.336C201.745 316.968 202.264 317.375 202.986 317.555C203.754 317.736 204.815 317.826 206.169 317.826ZM229.819 325.546V291.009H240.113L240.383 295.208H240.993C241.67 294.034 242.505 293.109 243.498 292.432C244.492 291.709 245.62 291.213 246.884 290.942C248.148 290.626 249.525 290.468 251.015 290.468C253.318 290.468 255.146 290.761 256.5 291.348C257.9 291.935 258.961 292.793 259.683 293.921C260.406 295.05 260.88 296.449 261.105 298.12C261.376 299.79 261.512 301.732 261.512 303.944V325.546H250.609V307.262C250.609 305.411 250.564 303.966 250.473 302.928C250.383 301.844 250.18 301.054 249.864 300.558C249.548 300.061 249.051 299.768 248.374 299.677C247.742 299.542 246.884 299.474 245.801 299.474C244.672 299.474 243.747 299.61 243.024 299.881C242.347 300.106 241.828 300.513 241.467 301.099C241.151 301.686 240.925 302.522 240.79 303.605C240.699 304.643 240.654 305.953 240.654 307.533V325.546H229.819ZM285.946 326.088C282.695 326.088 280.009 325.884 277.887 325.478C275.765 325.072 274.073 324.44 272.808 323.582C271.589 322.679 270.664 321.528 270.032 320.128C269.445 318.729 269.061 317.059 268.881 315.117C268.745 313.176 268.678 310.919 268.678 308.345C268.678 305.23 268.813 302.544 269.084 300.287C269.4 298.03 270.077 296.179 271.115 294.734C272.154 293.289 273.756 292.228 275.923 291.551C278.136 290.829 281.115 290.468 284.862 290.468C287.887 290.468 290.348 290.693 292.244 291.145C294.14 291.551 295.63 292.206 296.713 293.109C297.842 293.966 298.632 295.095 299.083 296.495C299.58 297.894 299.896 299.587 300.031 301.574C300.167 303.515 300.234 305.772 300.234 308.345V310.986H279.445C279.445 312.521 279.513 313.763 279.648 314.711C279.783 315.614 280.145 316.291 280.731 316.742C281.318 317.194 282.221 317.51 283.44 317.691C284.659 317.826 286.352 317.894 288.519 317.894C289.377 317.894 290.393 317.871 291.566 317.826C292.74 317.781 293.959 317.713 295.223 317.623C296.532 317.533 297.751 317.442 298.88 317.352V324.936C297.887 325.162 296.668 325.365 295.223 325.546C293.824 325.726 292.311 325.862 290.686 325.952C289.061 326.043 287.481 326.088 285.946 326.088ZM290.009 306.449V305.366C290.009 303.741 289.919 302.454 289.738 301.506C289.603 300.558 289.332 299.858 288.925 299.407C288.564 298.91 288.045 298.594 287.368 298.458C286.691 298.323 285.833 298.255 284.795 298.255C283.621 298.255 282.673 298.346 281.95 298.526C281.273 298.662 280.754 298.978 280.393 299.474C280.032 299.971 279.783 300.693 279.648 301.641C279.513 302.589 279.445 303.831 279.445 305.366H291.16L290.009 306.449ZM304.138 325.546L315.718 308.007L304.544 291.009H316.53L322.625 300.829H323.099L329.126 291.009H340.435L329.329 307.939L340.909 325.546H328.991L322.422 315.117H321.88L315.515 325.546H304.138ZM358.073 326.088C355.003 326.088 352.452 325.907 350.421 325.546C348.389 325.185 346.787 324.598 345.613 323.785C344.439 322.973 343.581 321.889 343.039 320.535C342.498 319.18 342.137 317.487 341.956 315.456C341.821 313.424 341.753 311.009 341.753 308.21C341.753 305.411 341.821 303.018 341.956 301.032C342.137 299 342.498 297.307 343.039 295.953C343.581 294.599 344.439 293.515 345.613 292.702C346.787 291.89 348.389 291.325 350.421 291.009C352.452 290.648 355.003 290.468 358.073 290.468C361.188 290.468 363.761 290.648 365.793 291.009C367.824 291.325 369.427 291.89 370.601 292.702C371.775 293.515 372.632 294.599 373.174 295.953C373.716 297.307 374.055 299 374.19 301.032C374.371 303.018 374.461 305.411 374.461 308.21C374.461 311.009 374.371 313.424 374.19 315.456C374.055 317.487 373.716 319.18 373.174 320.535C372.632 321.889 371.775 322.973 370.601 323.785C369.427 324.598 367.824 325.185 365.793 325.546C363.761 325.907 361.188 326.088 358.073 326.088ZM358.073 317.826C359.427 317.826 360.488 317.736 361.256 317.555C362.023 317.375 362.565 316.968 362.881 316.336C363.197 315.704 363.378 314.734 363.423 313.424C363.513 312.115 363.558 310.377 363.558 308.21C363.558 306.043 363.513 304.327 363.423 303.063C363.378 301.799 363.197 300.851 362.881 300.219C362.565 299.587 362.023 299.181 361.256 299C360.488 298.82 359.427 298.729 358.073 298.729C356.719 298.729 355.658 298.82 354.89 299C354.168 299.181 353.649 299.587 353.333 300.219C353.017 300.851 352.814 301.799 352.723 303.063C352.678 304.327 352.656 306.043 352.656 308.21C352.656 310.377 352.678 312.115 352.723 313.424C352.814 314.734 353.017 315.704 353.333 316.336C353.649 316.968 354.168 317.375 354.89 317.555C355.658 317.736 356.719 317.826 358.073 317.826ZM345.206 286.811C345.206 284.734 345.297 282.996 345.477 281.597C345.703 280.197 346.245 279.114 347.103 278.346C348.005 277.579 349.473 277.195 351.504 277.195C352.814 277.195 354.123 277.33 355.432 277.601C356.741 277.872 357.96 278.165 359.089 278.481C359.992 278.707 360.827 278.91 361.594 279.091C362.407 279.272 363.152 279.362 363.829 279.362C364.687 279.362 365.183 279.159 365.319 278.752C365.454 278.346 365.522 277.579 365.522 276.45H370.94C370.94 278.436 370.827 280.152 370.601 281.597C370.42 283.041 369.879 284.147 368.976 284.915C368.118 285.637 366.673 285.998 364.642 285.998C363.287 285.998 361.978 285.863 360.714 285.592C359.495 285.276 358.299 285.005 357.125 284.779C356.177 284.508 355.297 284.283 354.484 284.102C353.671 283.922 352.972 283.831 352.385 283.831C351.527 283.831 351.008 284.057 350.827 284.508C350.692 284.915 350.624 285.682 350.624 286.811H345.206ZM397.84 326.088C394.59 326.088 391.904 325.884 389.782 325.478C387.66 325.072 385.967 324.44 384.703 323.582C383.484 322.679 382.558 321.528 381.926 320.128C381.339 318.729 380.956 317.059 380.775 315.117C380.64 313.176 380.572 310.919 380.572 308.345C380.572 305.23 380.707 302.544 380.978 300.287C381.294 298.03 381.971 296.179 383.01 294.734C384.048 293.289 385.651 292.228 387.818 291.551C390.03 290.829 393.01 290.468 396.757 290.468C399.781 290.468 402.242 290.693 404.138 291.145C406.034 291.551 407.524 292.206 408.607 293.109C409.736 293.966 410.526 295.095 410.978 296.495C411.474 297.894 411.79 299.587 411.926 301.574C412.061 303.515 412.129 305.772 412.129 308.345V310.986H391.339C391.339 312.521 391.407 313.763 391.542 314.711C391.678 315.614 392.039 316.291 392.626 316.742C393.213 317.194 394.116 317.51 395.335 317.691C396.554 317.826 398.246 317.894 400.413 317.894C401.271 317.894 402.287 317.871 403.461 317.826C404.635 317.781 405.854 317.713 407.118 317.623C408.427 317.533 409.646 317.442 410.774 317.352V324.936C409.781 325.162 408.562 325.365 407.118 325.546C405.718 325.726 404.206 325.862 402.58 325.952C400.955 326.043 399.375 326.088 397.84 326.088ZM401.903 306.449V305.366C401.903 303.741 401.813 302.454 401.632 301.506C401.497 300.558 401.226 299.858 400.82 299.407C400.459 298.91 399.939 298.594 399.262 298.458C398.585 298.323 397.727 298.255 396.689 298.255C395.515 298.255 394.567 298.346 393.845 298.526C393.168 298.662 392.648 298.978 392.287 299.474C391.926 299.971 391.678 300.693 391.542 301.641C391.407 302.589 391.339 303.831 391.339 305.366H403.054L401.903 306.449ZM432.826 326.088C431.382 326.088 429.802 326.043 428.086 325.952C426.416 325.862 424.768 325.749 423.143 325.614C421.562 325.478 420.14 325.32 418.876 325.14V317.487C419.599 317.533 420.411 317.6 421.314 317.691C422.262 317.781 423.233 317.849 424.226 317.894C425.219 317.939 426.167 317.984 427.07 318.029C428.018 318.029 428.876 318.029 429.644 318.029C431.765 318.029 433.278 317.961 434.181 317.826C435.129 317.691 435.716 317.42 435.941 317.013C436.212 316.562 436.348 315.975 436.348 315.253C436.348 314.53 436.257 314.011 436.077 313.695C435.941 313.379 435.625 313.153 435.129 313.018C434.677 312.883 433.887 312.747 432.759 312.612L424.7 311.596C422.759 311.325 421.292 310.761 420.298 309.903C419.305 309 418.628 307.804 418.267 306.314C417.951 304.779 417.793 302.996 417.793 300.964C417.793 298.571 418.154 296.698 418.876 295.343C419.599 293.944 420.592 292.906 421.856 292.228C423.165 291.506 424.7 291.032 426.461 290.806C428.267 290.581 430.185 290.468 432.217 290.468C433.662 290.468 435.151 290.513 436.686 290.603C438.221 290.693 439.688 290.829 441.088 291.009C442.488 291.145 443.639 291.303 444.542 291.483V299.068C443.413 298.978 442.217 298.887 440.953 298.797C439.734 298.707 438.56 298.639 437.431 298.594C436.303 298.549 435.355 298.526 434.587 298.526C432.781 298.526 431.382 298.571 430.388 298.662C429.44 298.752 428.786 298.978 428.425 299.339C428.109 299.7 427.951 300.287 427.951 301.099C427.951 301.732 427.996 302.228 428.086 302.589C428.221 302.905 428.515 303.131 428.966 303.266C429.418 303.402 430.118 303.537 431.066 303.673L439.192 304.689C440.727 304.869 442.036 305.23 443.12 305.772C444.203 306.314 445.016 307.284 445.557 308.684C446.144 310.083 446.438 312.183 446.438 314.982C446.438 317.51 446.099 319.519 445.422 321.009C444.79 322.453 443.864 323.559 442.646 324.327C441.427 325.049 439.982 325.523 438.312 325.749C436.686 325.975 434.858 326.088 432.826 326.088ZM453.413 325.546V315.727H464.993V325.546H453.413Z" fill="#E5E5E5"/>
<path d="M40.6775 104.114L6.13185 91.2454V81.1408L40.6775 68.1862V78.2908L17.8774 86.1499L40.6775 94.009V104.114Z" fill="#FF4800"/>
<path d="M510.339 320.924V310.82L533.052 302.96L510.339 295.101V284.997L544.884 297.951V308.056L510.339 320.924Z" fill="#FF4800"/>
</svg>
