<svg width="603" height="378" viewBox="0 0 603 378" fill="none" xmlns="http://www.w3.org/2000/svg">
<path d="M78.8731 106.542C77.0673 106.542 75.1034 106.497 72.9816 106.406C70.9049 106.316 68.8508 106.181 66.8192 106C64.8328 105.819 63.0495 105.639 61.4694 105.458V96.7226C63.1398 96.858 64.8102 96.9934 66.4806 97.1289C68.1961 97.2643 69.8214 97.3546 71.3563 97.3997C72.8913 97.4449 74.1779 97.4675 75.2163 97.4675C77.3833 97.4675 79.0311 97.3997 80.1598 97.2643C81.2884 97.0837 82.1236 96.8354 82.6653 96.5194C83.0265 96.2034 83.2748 95.8648 83.4102 95.5036C83.5908 95.1425 83.7037 94.7136 83.7488 94.217C83.794 93.7204 83.8166 93.156 83.8166 92.524C83.8166 91.5759 83.7488 90.831 83.6134 90.2893C83.5231 89.7024 83.2974 89.2509 82.9362 88.9349C82.6202 88.6189 82.1236 88.3932 81.4464 88.2577C80.7692 88.0772 79.8889 87.9191 78.8054 87.7837L69.2571 86.5648C67.4061 86.339 65.8937 85.8876 64.7199 85.2104C63.5461 84.4881 62.6206 83.54 61.9435 82.3662C61.2663 81.1924 60.7922 79.8155 60.5214 78.2354C60.2505 76.6101 60.1151 74.8043 60.1151 72.8179C60.1151 69.748 60.5665 67.3101 61.4694 65.5043C62.3723 63.6533 63.6138 62.2538 65.1939 61.3057C66.8192 60.3125 68.6927 59.6579 70.8146 59.3419C72.9816 59.0259 75.3292 58.8679 77.8573 58.8679C79.6631 58.8679 81.5367 58.9356 83.478 59.071C85.4192 59.1613 87.2476 59.3193 88.9632 59.5451C90.6787 59.7256 92.1008 59.9514 93.2294 60.2222V68.7548C92.1008 68.5742 90.769 68.4388 89.234 68.3485C87.7442 68.213 86.1867 68.1227 84.5615 68.0776C82.9362 67.9873 81.4013 67.9422 79.9566 67.9422C78.1959 67.9422 76.7964 68.0099 75.758 68.1453C74.7197 68.2356 73.9071 68.4388 73.3202 68.7548C72.6881 69.116 72.2818 69.59 72.1012 70.1769C71.9658 70.7638 71.8981 71.5087 71.8981 72.4116C71.8981 73.5402 71.9884 74.4206 72.169 75.0526C72.3495 75.6395 72.7559 76.0458 73.3879 76.2715C74.0199 76.4973 74.9906 76.7004 76.2998 76.881L85.5772 77.9645C86.8413 78.0999 87.9925 78.3257 89.0309 78.6417C90.1144 78.9577 91.085 79.4543 91.9428 80.1315C92.8457 80.8087 93.5906 81.7793 94.1775 83.0434C94.4935 83.6303 94.7418 84.3526 94.9224 85.2104C95.103 86.023 95.261 86.9711 95.3964 88.0546C95.5319 89.1381 95.5996 90.357 95.5996 91.7114C95.5996 94.375 95.3287 96.6323 94.787 98.4832C94.2452 100.289 93.4777 101.734 92.4845 102.817C91.4913 103.856 90.295 104.668 88.8954 105.255C87.4959 105.797 85.9384 106.135 84.2229 106.271C82.5525 106.451 80.7692 106.542 78.8731 106.542ZM118.096 106.542C115.027 106.542 112.476 106.361 110.444 106C108.413 105.639 106.81 105.052 105.636 104.239C104.462 103.427 103.605 102.343 103.063 100.989C102.521 99.6345 102.16 97.9415 101.979 95.9099C101.844 93.8784 101.776 91.4631 101.776 88.664C101.776 85.865 101.844 83.4723 101.979 81.4859C102.16 79.4543 102.521 77.7614 103.063 76.407C103.605 75.0526 104.462 73.9691 105.636 73.1565C106.81 72.3439 108.413 71.7795 110.444 71.4635C112.476 71.1024 115.027 70.9218 118.096 70.9218C121.211 70.9218 123.785 71.1024 125.816 71.4635C127.848 71.7795 129.451 72.3439 130.624 73.1565C131.798 73.9691 132.656 75.0526 133.198 76.407C133.739 77.7614 134.078 79.4543 134.213 81.4859C134.394 83.4723 134.484 85.865 134.484 88.664C134.484 91.4631 134.394 93.8784 134.213 95.9099C134.078 97.9415 133.739 99.6345 133.198 100.989C132.656 102.343 131.798 103.427 130.624 104.239C129.451 105.052 127.848 105.639 125.816 106C123.785 106.361 121.211 106.542 118.096 106.542ZM118.096 98.2801C119.451 98.2801 120.512 98.1898 121.279 98.0092C122.047 97.8286 122.588 97.4223 122.904 96.7903C123.22 96.1582 123.401 95.1876 123.446 93.8784C123.536 92.5692 123.582 90.831 123.582 88.664C123.582 86.4971 123.536 84.7815 123.446 83.5174C123.401 82.2534 123.22 81.3053 122.904 80.6733C122.588 80.0412 122.047 79.6349 121.279 79.4543C120.512 79.2737 119.451 79.1834 118.096 79.1834C116.742 79.1834 115.681 79.2737 114.914 79.4543C114.191 79.6349 113.672 80.0412 113.356 80.6733C113.04 81.3053 112.837 82.2534 112.747 83.5174C112.702 84.7815 112.679 86.4971 112.679 88.664C112.679 90.831 112.702 92.5692 112.747 93.8784C112.837 95.1876 113.04 96.1582 113.356 96.7903C113.672 97.4223 114.191 97.8286 114.914 98.0092C115.681 98.1898 116.742 98.2801 118.096 98.2801ZM141.747 106V55.6851H152.717V106H141.747ZM171.619 106.542C169.317 106.542 167.466 106.248 166.067 105.661C164.667 105.075 163.606 104.217 162.884 103.088C162.161 101.959 161.687 100.56 161.462 98.8896C161.236 97.2192 161.123 95.2779 161.123 93.0658V71.4635H171.958V89.7475C171.958 91.5985 172.003 93.0658 172.094 94.1492C172.229 95.1876 172.455 95.9551 172.771 96.4517C173.087 96.9483 173.561 97.2643 174.193 97.3997C174.825 97.49 175.683 97.5352 176.766 97.5352C177.94 97.5352 178.865 97.4223 179.543 97.1966C180.265 96.9257 180.784 96.4968 181.1 95.9099C181.416 95.323 181.619 94.5104 181.71 93.4721C181.845 92.3886 181.913 91.0568 181.913 89.4767V71.4635H192.815V106H182.454L182.184 101.801H181.574C180.942 102.975 180.129 103.923 179.136 104.646C178.143 105.323 177.014 105.797 175.75 106.068C174.486 106.384 173.109 106.542 171.619 106.542ZM215.015 106.542C212.126 106.542 209.755 106.293 207.904 105.797C206.054 105.255 204.586 104.51 203.503 103.562C202.419 102.569 201.629 101.35 201.133 99.9053C200.636 98.4607 200.32 96.8128 200.185 94.9619C200.049 93.0658 199.981 90.989 199.981 88.7318C199.981 86.5196 200.049 84.4881 200.185 82.6371C200.32 80.7861 200.659 79.1383 201.2 77.6936C201.742 76.2038 202.532 74.9623 203.57 73.9691C204.654 72.9759 206.099 72.231 207.904 71.7344C209.755 71.1927 212.103 70.9218 214.947 70.9218C216.753 70.9218 218.559 71.0121 220.365 71.1927C222.216 71.3732 223.863 71.6441 225.308 72.0053V79.6575C224.405 79.522 223.231 79.4092 221.787 79.3189C220.387 79.2286 219.078 79.1834 217.859 79.1834C216.279 79.1834 215.037 79.3189 214.135 79.5898C213.232 79.8155 212.554 80.2669 212.103 80.9441C211.652 81.5762 211.336 82.5242 211.155 83.7883C211.02 85.0524 210.952 86.7002 210.952 88.7318C210.952 90.7633 211.02 92.4337 211.155 93.7429C211.336 95.007 211.652 95.9777 212.103 96.6548C212.554 97.2869 213.254 97.7158 214.202 97.9415C215.15 98.1672 216.392 98.2801 217.927 98.2801C219.01 98.2801 220.229 98.2349 221.584 98.1446C222.983 98.0544 224.315 97.9415 225.579 97.8061V105.458C224.089 105.774 222.396 106.023 220.5 106.203C218.604 106.429 216.776 106.542 215.015 106.542ZM206.889 118.867V118.528L212.306 104.781H219.349V105.12L216.776 118.867H206.889ZM247.648 106.542C244.578 106.542 242.027 106.361 239.996 106C237.964 105.639 236.361 105.052 235.188 104.239C234.014 103.427 233.156 102.343 232.614 100.989C232.073 99.6345 231.711 97.9415 231.531 95.9099C231.395 93.8784 231.328 91.4631 231.328 88.664C231.328 85.865 231.395 83.4723 231.531 81.4859C231.711 79.4543 232.073 77.7614 232.614 76.407C233.156 75.0526 234.014 73.9691 235.188 73.1565C236.361 72.3439 237.964 71.7795 239.996 71.4635C242.027 71.1024 244.578 70.9218 247.648 70.9218C250.763 70.9218 253.336 71.1024 255.368 71.4635C257.399 71.7795 259.002 72.3439 260.176 73.1565C261.35 73.9691 262.207 75.0526 262.749 76.407C263.291 77.7614 263.629 79.4543 263.765 81.4859C263.945 83.4723 264.036 85.865 264.036 88.664C264.036 91.4631 263.945 93.8784 263.765 95.9099C263.629 97.9415 263.291 99.6345 262.749 100.989C262.207 102.343 261.35 103.427 260.176 104.239C259.002 105.052 257.399 105.639 255.368 106C253.336 106.361 250.763 106.542 247.648 106.542ZM247.648 98.2801C249.002 98.2801 250.063 98.1898 250.831 98.0092C251.598 97.8286 252.14 97.4223 252.456 96.7903C252.772 96.1582 252.952 95.1876 252.998 93.8784C253.088 92.5692 253.133 90.831 253.133 88.664C253.133 86.4971 253.088 84.7815 252.998 83.5174C252.952 82.2534 252.772 81.3053 252.456 80.6733C252.14 80.0412 251.598 79.6349 250.831 79.4543C250.063 79.2737 249.002 79.1834 247.648 79.1834C246.294 79.1834 245.233 79.2737 244.465 79.4543C243.743 79.6349 243.224 80.0412 242.908 80.6733C242.592 81.3053 242.388 82.2534 242.298 83.5174C242.253 84.7815 242.23 86.4971 242.23 88.664C242.23 90.831 242.253 92.5692 242.298 93.8784C242.388 95.1876 242.592 96.1582 242.908 96.7903C243.224 97.4223 243.743 97.8286 244.465 98.0092C245.233 98.1898 246.294 98.2801 247.648 98.2801ZM234.781 67.265C234.781 65.1883 234.872 63.4502 235.052 62.0506C235.278 60.6511 235.82 59.5676 236.677 58.8002C237.58 58.0327 239.048 57.6489 241.079 57.6489C242.388 57.6489 243.698 57.7844 245.007 58.0553C246.316 58.3261 247.535 58.6196 248.664 58.9356C249.567 59.1613 250.402 59.3645 251.169 59.5451C251.982 59.7256 252.727 59.8159 253.404 59.8159C254.262 59.8159 254.758 59.6128 254.894 59.2065C255.029 58.8002 255.097 58.0327 255.097 56.904H260.514C260.514 58.8904 260.402 60.606 260.176 62.0506C259.995 63.4953 259.453 64.6014 258.551 65.3689C257.693 66.0912 256.248 66.4524 254.217 66.4524C252.862 66.4524 251.553 66.3169 250.289 66.046C249.07 65.73 247.874 65.4591 246.7 65.2334C245.752 64.9625 244.871 64.7368 244.059 64.5562C243.246 64.3757 242.546 64.2854 241.96 64.2854C241.102 64.2854 240.583 64.5111 240.402 64.9625C240.267 65.3689 240.199 66.1363 240.199 67.265H234.781ZM287.415 106.542C284.165 106.542 281.478 106.339 279.357 105.932C277.235 105.526 275.542 104.894 274.278 104.036C273.059 103.133 272.133 101.982 271.501 100.583C270.914 99.183 270.531 97.5126 270.35 95.5713C270.215 93.6301 270.147 91.3728 270.147 88.7995C270.147 85.6844 270.282 82.9983 270.553 80.741C270.869 78.4837 271.546 76.6327 272.585 75.1881C273.623 73.7434 275.226 72.6825 277.393 72.0053C279.605 71.2829 282.584 70.9218 286.332 70.9218C289.356 70.9218 291.817 71.1475 293.713 71.599C295.609 72.0053 297.099 72.6599 298.182 73.5628C299.311 74.4206 300.101 75.5492 300.552 76.9487C301.049 78.3482 301.365 80.0412 301.501 82.0276C301.636 83.9689 301.704 86.2262 301.704 88.7995V91.4405H280.914C280.914 92.9755 280.982 94.217 281.117 95.165C281.253 96.0679 281.614 96.7451 282.201 97.1966C282.788 97.648 283.691 97.9641 284.909 98.1446C286.128 98.2801 287.821 98.3478 289.988 98.3478C290.846 98.3478 291.862 98.3252 293.036 98.2801C294.21 98.2349 295.428 98.1672 296.693 98.0769C298.002 97.9866 299.221 97.8963 300.349 97.8061V105.391C299.356 105.616 298.137 105.819 296.693 106C295.293 106.181 293.781 106.316 292.155 106.406C290.53 106.497 288.95 106.542 287.415 106.542ZM291.478 86.9034V85.8199C291.478 84.1946 291.388 82.908 291.207 81.9599C291.072 81.0118 290.801 80.3121 290.395 79.8606C290.034 79.364 289.514 79.048 288.837 78.9126C288.16 78.7771 287.302 78.7094 286.264 78.7094C285.09 78.7094 284.142 78.7997 283.42 78.9803C282.742 79.1157 282.223 79.4317 281.862 79.9284C281.501 80.425 281.253 81.1473 281.117 82.0953C280.982 83.0434 280.914 84.2849 280.914 85.8199H292.629L291.478 86.9034ZM322.401 106.542C320.957 106.542 319.376 106.497 317.661 106.406C315.991 106.316 314.343 106.203 312.717 106.068C311.137 105.932 309.715 105.774 308.451 105.594V97.9415C309.174 97.9866 309.986 98.0544 310.889 98.1446C311.837 98.2349 312.808 98.3027 313.801 98.3478C314.794 98.3929 315.742 98.4381 316.645 98.4832C317.593 98.4832 318.451 98.4832 319.218 98.4832C321.34 98.4832 322.853 98.4155 323.756 98.2801C324.704 98.1446 325.291 97.8738 325.516 97.4675C325.787 97.016 325.923 96.4291 325.923 95.7068C325.923 94.9844 325.832 94.4653 325.652 94.1492C325.516 93.8332 325.2 93.6075 324.704 93.4721C324.252 93.3366 323.462 93.2012 322.334 93.0658L314.275 92.05C312.334 91.7791 310.867 91.2148 309.873 90.357C308.88 89.4541 308.203 88.2577 307.842 86.7679C307.526 85.233 307.368 83.4497 307.368 81.4182C307.368 79.0254 307.729 77.1519 308.451 75.7975C309.174 74.398 310.167 73.3596 311.431 72.6825C312.74 71.9601 314.275 71.4861 316.036 71.2604C317.842 71.0346 319.76 70.9218 321.792 70.9218C323.236 70.9218 324.726 70.9669 326.261 71.0572C327.796 71.1475 329.263 71.2829 330.663 71.4635C332.062 71.599 333.214 71.757 334.117 71.9376V79.522C332.988 79.4317 331.792 79.3415 330.527 79.2512C329.309 79.1609 328.135 79.0932 327.006 79.048C325.877 79.0029 324.929 78.9803 324.162 78.9803C322.356 78.9803 320.957 79.0254 319.963 79.1157C319.015 79.206 318.361 79.4317 318 79.7929C317.684 80.1541 317.525 80.741 317.525 81.5536C317.525 82.1856 317.571 82.6822 317.661 83.0434C317.796 83.3594 318.09 83.5852 318.541 83.7206C318.993 83.856 319.692 83.9915 320.641 84.1269L328.767 85.1427C330.302 85.3233 331.611 85.6844 332.694 86.2262C333.778 86.7679 334.591 87.7386 335.132 89.1381C335.719 90.5376 336.013 92.6369 336.013 95.4359C336.013 97.9641 335.674 99.973 334.997 101.463C334.365 102.908 333.439 104.014 332.22 104.781C331.001 105.503 329.557 105.977 327.886 106.203C326.261 106.429 324.433 106.542 322.401 106.542ZM61.1986 181V146.464H71.4918L71.7626 152.355H72.3721C73.0042 150.685 73.7942 149.375 74.7423 148.427C75.7355 147.479 76.9318 146.825 78.3314 146.464C79.7309 146.102 81.3561 145.922 83.2071 145.922V155.876C80.3629 155.876 78.1282 156.238 76.5029 156.96C74.8777 157.682 73.7265 158.924 73.0493 160.684C72.3721 162.4 72.0335 164.815 72.0335 167.93V181H61.1986ZM104.76 181.542C101.51 181.542 98.8234 181.339 96.7016 180.932C94.5797 180.526 92.8868 179.894 91.6227 179.036C90.4038 178.133 89.4783 176.982 88.8462 175.583C88.2593 174.183 87.8756 172.513 87.695 170.571C87.5596 168.63 87.4919 166.373 87.4919 163.799C87.4919 160.684 87.6273 157.998 87.8982 155.741C88.2142 153.484 88.8914 151.633 89.9297 150.188C90.9681 148.743 92.5708 147.682 94.7378 147.005C96.9499 146.283 99.9295 145.922 103.677 145.922C106.701 145.922 109.162 146.148 111.058 146.599C112.954 147.005 114.444 147.66 115.527 148.563C116.656 149.421 117.446 150.549 117.898 151.949C118.394 153.348 118.71 155.041 118.846 157.028C118.981 158.969 119.049 161.226 119.049 163.799V166.441H98.2591C98.2591 167.975 98.3268 169.217 98.4623 170.165C98.5977 171.068 98.9589 171.745 99.5458 172.197C100.133 172.648 101.036 172.964 102.255 173.145C103.473 173.28 105.166 173.348 107.333 173.348C108.191 173.348 109.207 173.325 110.381 173.28C111.555 173.235 112.773 173.167 114.038 173.077C115.347 172.987 116.566 172.896 117.694 172.806V180.391C116.701 180.616 115.482 180.819 114.038 181C112.638 181.181 111.126 181.316 109.5 181.406C107.875 181.497 106.295 181.542 104.76 181.542ZM108.823 161.903V160.82C108.823 159.195 108.733 157.908 108.552 156.96C108.417 156.012 108.146 155.312 107.74 154.861C107.379 154.364 106.859 154.048 106.182 153.913C105.505 153.777 104.647 153.709 103.609 153.709C102.435 153.709 101.487 153.8 100.765 153.98C100.088 154.116 99.5684 154.432 99.2072 154.928C98.846 155.425 98.5977 156.147 98.4623 157.095C98.3268 158.043 98.2591 159.285 98.2591 160.82H109.974L108.823 161.903ZM139.746 181.542C138.302 181.542 136.722 181.497 135.006 181.406C133.336 181.316 131.688 181.203 130.063 181.068C128.482 180.932 127.06 180.774 125.796 180.594V172.941C126.519 172.987 127.331 173.054 128.234 173.145C129.182 173.235 130.153 173.303 131.146 173.348C132.139 173.393 133.087 173.438 133.99 173.483C134.938 173.483 135.796 173.483 136.563 173.483C138.685 173.483 140.198 173.416 141.101 173.28C142.049 173.145 142.636 172.874 142.861 172.467C143.132 172.016 143.268 171.429 143.268 170.707C143.268 169.984 143.177 169.465 142.997 169.149C142.861 168.833 142.545 168.608 142.049 168.472C141.597 168.337 140.807 168.201 139.679 168.066L131.62 167.05C129.679 166.779 128.212 166.215 127.218 165.357C126.225 164.454 125.548 163.258 125.187 161.768C124.871 160.233 124.713 158.45 124.713 156.418C124.713 154.025 125.074 152.152 125.796 150.798C126.519 149.398 127.512 148.36 128.776 147.682C130.085 146.96 131.62 146.486 133.381 146.26C135.187 146.035 137.105 145.922 139.137 145.922C140.581 145.922 142.071 145.967 143.606 146.057C145.141 146.148 146.608 146.283 148.008 146.464C149.407 146.599 150.559 146.757 151.462 146.938V154.522C150.333 154.432 149.137 154.341 147.872 154.251C146.654 154.161 145.48 154.093 144.351 154.048C143.222 154.003 142.274 153.98 141.507 153.98C139.701 153.98 138.302 154.025 137.308 154.116C136.36 154.206 135.706 154.432 135.345 154.793C135.029 155.154 134.871 155.741 134.871 156.554C134.871 157.186 134.916 157.682 135.006 158.043C135.141 158.359 135.435 158.585 135.886 158.721C136.338 158.856 137.038 158.991 137.986 159.127L146.112 160.143C147.647 160.323 148.956 160.684 150.039 161.226C151.123 161.768 151.936 162.739 152.477 164.138C153.064 165.538 153.358 167.637 153.358 170.436C153.358 172.964 153.019 174.973 152.342 176.463C151.71 177.908 150.784 179.014 149.565 179.781C148.347 180.503 146.902 180.977 145.231 181.203C143.606 181.429 141.778 181.542 139.746 181.542ZM160.197 194.476V146.464H170.491L170.761 150.662H171.371C172.093 149.353 172.951 148.36 173.944 147.682C174.982 147.005 176.134 146.554 177.398 146.328C178.662 146.057 179.926 145.922 181.19 145.922C183.222 145.922 184.937 146.193 186.337 146.734C187.781 147.276 188.955 148.224 189.858 149.579C190.806 150.888 191.483 152.694 191.89 154.996C192.341 157.299 192.567 160.188 192.567 163.664C192.567 167.095 192.341 169.962 191.89 172.264C191.483 174.567 190.829 176.395 189.926 177.75C189.023 179.104 187.849 180.075 186.404 180.661C185.005 181.248 183.289 181.542 181.258 181.542C179.949 181.542 178.684 181.429 177.466 181.203C176.247 180.977 175.141 180.571 174.147 179.984C173.199 179.352 172.364 178.472 171.642 177.343H171.032V194.476H160.197ZM176.314 172.603C177.533 172.603 178.504 172.513 179.226 172.332C179.949 172.151 180.468 171.79 180.784 171.249C181.145 170.662 181.371 169.781 181.461 168.608C181.596 167.434 181.664 165.808 181.664 163.732C181.664 161.655 181.596 160.03 181.461 158.856C181.371 157.637 181.145 156.757 180.784 156.215C180.468 155.628 179.949 155.267 179.226 155.132C178.504 154.951 177.533 154.861 176.314 154.861C175.005 154.861 173.989 155.041 173.267 155.402C172.59 155.718 172.071 156.283 171.709 157.095C171.439 157.818 171.258 158.743 171.168 159.872C171.077 160.955 171.032 162.242 171.032 163.732C171.032 165.267 171.077 166.576 171.168 167.659C171.258 168.743 171.416 169.601 171.642 170.233C172.003 171.136 172.545 171.768 173.267 172.129C173.989 172.445 175.005 172.603 176.314 172.603ZM214.979 181.542C211.909 181.542 209.358 181.361 207.327 181C205.295 180.639 203.693 180.052 202.519 179.239C201.345 178.427 200.487 177.343 199.945 175.989C199.404 174.634 199.043 172.941 198.862 170.91C198.726 168.878 198.659 166.463 198.659 163.664C198.659 160.865 198.726 158.472 198.862 156.486C199.043 154.454 199.404 152.761 199.945 151.407C200.487 150.053 201.345 148.969 202.519 148.156C203.693 147.344 205.295 146.78 207.327 146.464C209.358 146.102 211.909 145.922 214.979 145.922C218.094 145.922 220.667 146.102 222.699 146.464C224.73 146.78 226.333 147.344 227.507 148.156C228.681 148.969 229.538 150.053 230.08 151.407C230.622 152.761 230.961 154.454 231.096 156.486C231.277 158.472 231.367 160.865 231.367 163.664C231.367 166.463 231.277 168.878 231.096 170.91C230.961 172.941 230.622 174.634 230.08 175.989C229.538 177.343 228.681 178.427 227.507 179.239C226.333 180.052 224.73 180.639 222.699 181C220.667 181.361 218.094 181.542 214.979 181.542ZM214.979 173.28C216.333 173.28 217.394 173.19 218.162 173.009C218.929 172.829 219.471 172.422 219.787 171.79C220.103 171.158 220.284 170.188 220.329 168.878C220.419 167.569 220.464 165.831 220.464 163.664C220.464 161.497 220.419 159.782 220.329 158.517C220.284 157.253 220.103 156.305 219.787 155.673C219.471 155.041 218.929 154.635 218.162 154.454C217.394 154.274 216.333 154.183 214.979 154.183C213.625 154.183 212.564 154.274 211.796 154.454C211.074 154.635 210.555 155.041 210.239 155.673C209.923 156.305 209.719 157.253 209.629 158.517C209.584 159.782 209.561 161.497 209.561 163.664C209.561 165.831 209.584 167.569 209.629 168.878C209.719 170.188 209.923 171.158 210.239 171.79C210.555 172.422 211.074 172.829 211.796 173.009C212.564 173.19 213.625 173.28 214.979 173.28ZM238.629 181V146.464H248.922L249.193 150.662H249.803C250.48 149.488 251.315 148.563 252.308 147.886C253.301 147.163 254.43 146.667 255.694 146.396C256.958 146.08 258.335 145.922 259.825 145.922C262.127 145.922 263.956 146.215 265.31 146.802C266.71 147.389 267.771 148.247 268.493 149.375C269.215 150.504 269.689 151.904 269.915 153.574C270.186 155.244 270.321 157.186 270.321 159.398V181H259.419V162.716C259.419 160.865 259.374 159.42 259.283 158.382C259.193 157.299 258.99 156.508 258.674 156.012C258.358 155.515 257.861 155.222 257.184 155.132C256.552 154.996 255.694 154.928 254.611 154.928C253.482 154.928 252.557 155.064 251.834 155.335C251.157 155.56 250.638 155.967 250.277 156.554C249.961 157.14 249.735 157.976 249.6 159.059C249.509 160.098 249.464 161.407 249.464 162.987V181H238.629ZM292.047 181.542C290.602 181.542 289.022 181.497 287.307 181.406C285.636 181.316 283.988 181.203 282.363 181.068C280.783 180.932 279.361 180.774 278.097 180.594V172.941C278.819 172.987 279.632 173.054 280.535 173.145C281.483 173.235 282.453 173.303 283.447 173.348C284.44 173.393 285.388 173.438 286.291 173.483C287.239 173.483 288.097 173.483 288.864 173.483C290.986 173.483 292.498 173.416 293.401 173.28C294.349 173.145 294.936 172.874 295.162 172.467C295.433 172.016 295.568 171.429 295.568 170.707C295.568 169.984 295.478 169.465 295.297 169.149C295.162 168.833 294.846 168.608 294.349 168.472C293.898 168.337 293.108 168.201 291.979 168.066L283.921 167.05C281.979 166.779 280.512 166.215 279.519 165.357C278.526 164.454 277.849 163.258 277.487 161.768C277.171 160.233 277.013 158.45 277.013 156.418C277.013 154.025 277.375 152.152 278.097 150.798C278.819 149.398 279.812 148.36 281.076 147.682C282.386 146.96 283.921 146.486 285.681 146.26C287.487 146.035 289.406 145.922 291.437 145.922C292.882 145.922 294.372 145.967 295.907 146.057C297.442 146.148 298.909 146.283 300.309 146.464C301.708 146.599 302.859 146.757 303.762 146.938V154.522C302.634 154.432 301.437 154.341 300.173 154.251C298.954 154.161 297.78 154.093 296.652 154.048C295.523 154.003 294.575 153.98 293.808 153.98C292.002 153.98 290.602 154.025 289.609 154.116C288.661 154.206 288.006 154.432 287.645 154.793C287.329 155.154 287.171 155.741 287.171 156.554C287.171 157.186 287.216 157.682 287.307 158.043C287.442 158.359 287.735 158.585 288.187 158.721C288.638 158.856 289.338 158.991 290.286 159.127L298.412 160.143C299.947 160.323 301.257 160.684 302.34 161.226C303.424 161.768 304.236 162.739 304.778 164.138C305.365 165.538 305.658 167.637 305.658 170.436C305.658 172.964 305.32 174.973 304.643 176.463C304.011 177.908 303.085 179.014 301.866 179.781C300.647 180.503 299.203 180.977 297.532 181.203C295.907 181.429 294.078 181.542 292.047 181.542ZM320.895 181.542C318.728 181.542 316.9 181.203 315.41 180.526C313.92 179.849 312.791 178.743 312.024 177.208C311.302 175.673 310.94 173.664 310.94 171.181C310.94 168.562 311.234 166.486 311.821 164.951C312.453 163.371 313.559 162.242 315.139 161.565C316.719 160.888 318.954 160.549 321.843 160.549C322.249 160.549 322.814 160.572 323.536 160.617C324.304 160.617 325.161 160.639 326.109 160.684C327.057 160.684 328.005 160.707 328.954 160.752C329.902 160.752 330.759 160.775 331.527 160.82V159.533C331.527 158.224 331.414 157.208 331.188 156.486C331.008 155.764 330.624 155.244 330.037 154.928C329.495 154.567 328.66 154.364 327.531 154.319C326.403 154.229 324.913 154.183 323.062 154.183C322.024 154.183 320.872 154.206 319.608 154.251C318.389 154.296 317.17 154.364 315.952 154.454C314.778 154.499 313.785 154.567 312.972 154.657V147.005C314.823 146.689 316.9 146.441 319.202 146.26C321.55 146.035 324.01 145.922 326.583 145.922C329.473 145.922 331.865 146.102 333.762 146.464C335.703 146.825 337.26 147.389 338.434 148.156C339.608 148.879 340.466 149.804 341.007 150.933C341.594 152.062 341.978 153.393 342.159 154.928C342.339 156.463 342.43 158.201 342.43 160.143V181H332.001L331.73 176.937H331.188C330.33 178.291 329.337 179.307 328.209 179.984C327.08 180.661 325.884 181.09 324.62 181.271C323.355 181.451 322.114 181.542 320.895 181.542ZM326.042 173.822C326.854 173.822 327.554 173.777 328.141 173.686C328.773 173.551 329.292 173.348 329.698 173.077C330.15 172.761 330.511 172.377 330.782 171.926C331.008 171.429 331.188 170.82 331.324 170.097C331.459 169.375 331.527 168.517 331.527 167.524V166.237H325.229C324.1 166.237 323.243 166.328 322.656 166.508C322.069 166.644 321.662 167.005 321.437 167.592C321.256 168.133 321.166 168.991 321.166 170.165C321.166 171.158 321.279 171.926 321.504 172.467C321.73 173.009 322.182 173.37 322.859 173.551C323.581 173.732 324.642 173.822 326.042 173.822ZM320.421 141.994V141.656L326.651 132.175H337.147V132.514L328.141 141.994H320.421ZM357.303 181L346.875 146.464H357.98L364.414 171.316H365.091L371.321 146.464H382.291L371.93 181H357.303ZM402.881 181.542C399.63 181.542 396.944 181.339 394.822 180.932C392.7 180.526 391.007 179.894 389.743 179.036C388.524 178.133 387.599 176.982 386.967 175.583C386.38 174.183 385.996 172.513 385.815 170.571C385.68 168.63 385.612 166.373 385.612 163.799C385.612 160.684 385.748 157.998 386.019 155.741C386.335 153.484 387.012 151.633 388.05 150.188C389.088 148.743 390.691 147.682 392.858 147.005C395.07 146.283 398.05 145.922 401.797 145.922C404.822 145.922 407.282 146.148 409.178 146.599C411.074 147.005 412.564 147.66 413.648 148.563C414.776 149.421 415.566 150.549 416.018 151.949C416.515 153.348 416.831 155.041 416.966 157.028C417.101 158.969 417.169 161.226 417.169 163.799V166.441H396.38C396.38 167.975 396.447 169.217 396.583 170.165C396.718 171.068 397.079 171.745 397.666 172.197C398.253 172.648 399.156 172.964 400.375 173.145C401.594 173.28 403.287 173.348 405.454 173.348C406.312 173.348 407.327 173.325 408.501 173.28C409.675 173.235 410.894 173.167 412.158 173.077C413.467 172.987 414.686 172.896 415.815 172.806V180.391C414.822 180.616 413.603 180.819 412.158 181C410.758 181.181 409.246 181.316 407.621 181.406C405.996 181.497 404.415 181.542 402.881 181.542ZM406.944 161.903V160.82C406.944 159.195 406.853 157.908 406.673 156.96C406.537 156.012 406.266 155.312 405.86 154.861C405.499 154.364 404.98 154.048 404.303 153.913C403.625 153.777 402.768 153.709 401.729 153.709C400.556 153.709 399.607 153.8 398.885 153.98C398.208 154.116 397.689 154.432 397.328 154.928C396.966 155.425 396.718 156.147 396.583 157.095C396.447 158.043 396.38 159.285 396.38 160.82H408.095L406.944 161.903ZM424.323 139.421V130.685H435.497V139.421H424.323ZM424.458 181V146.464H435.429V181H424.458ZM457.243 181.542C455.799 181.542 454.218 181.497 452.503 181.406C450.832 181.316 449.185 181.203 447.559 181.068C445.979 180.932 444.557 180.774 443.293 180.594V172.941C444.015 172.987 444.828 173.054 445.731 173.145C446.679 173.235 447.65 173.303 448.643 173.348C449.636 173.393 450.584 173.438 451.487 173.483C452.435 173.483 453.293 173.483 454.06 173.483C456.182 173.483 457.695 173.416 458.598 173.28C459.546 173.145 460.133 172.874 460.358 172.467C460.629 172.016 460.765 171.429 460.765 170.707C460.765 169.984 460.674 169.465 460.494 169.149C460.358 168.833 460.042 168.608 459.546 168.472C459.094 168.337 458.304 168.201 457.175 168.066L449.117 167.05C447.176 166.779 445.708 166.215 444.715 165.357C443.722 164.454 443.045 163.258 442.684 161.768C442.368 160.233 442.21 158.45 442.21 156.418C442.21 154.025 442.571 152.152 443.293 150.798C444.015 149.398 445.009 148.36 446.273 147.682C447.582 146.96 449.117 146.486 450.878 146.26C452.683 146.035 454.602 145.922 456.634 145.922C458.078 145.922 459.568 145.967 461.103 146.057C462.638 146.148 464.105 146.283 465.505 146.464C466.904 146.599 468.056 146.757 468.958 146.938V154.522C467.83 154.432 466.633 154.341 465.369 154.251C464.15 154.161 462.977 154.093 461.848 154.048C460.719 154.003 459.771 153.98 459.004 153.98C457.198 153.98 455.799 154.025 454.805 154.116C453.857 154.206 453.203 154.432 452.841 154.793C452.525 155.154 452.367 155.741 452.367 156.554C452.367 157.186 452.413 157.682 452.503 158.043C452.638 158.359 452.932 158.585 453.383 158.721C453.835 158.856 454.534 158.991 455.482 159.127L463.609 160.143C465.144 160.323 466.453 160.684 467.536 161.226C468.62 161.768 469.433 162.739 469.974 164.138C470.561 165.538 470.855 167.637 470.855 170.436C470.855 172.964 470.516 174.973 469.839 176.463C469.207 177.908 468.281 179.014 467.062 179.781C465.843 180.503 464.399 180.977 462.728 181.203C461.103 181.429 459.275 181.542 457.243 181.542ZM477.288 190.955V186.621C478.642 186.621 479.635 186.485 480.267 186.214C480.945 185.989 481.396 185.537 481.622 184.86C481.893 184.228 482.028 183.302 482.028 182.083V181H477.83V171.181H489.41V178.494C489.41 180.977 489.274 183.032 489.003 184.657C488.732 186.282 488.191 187.546 487.378 188.449C486.565 189.397 485.346 190.052 483.721 190.413C482.096 190.774 479.951 190.955 477.288 190.955Z" fill="#E5E5E5"/>
<path d="M75.0809 252.542C72.1915 252.542 69.8214 252.293 67.9704 251.797C66.1194 251.255 64.6522 250.51 63.5687 249.562C62.4852 248.569 61.6952 247.35 61.1986 245.905C60.7019 244.461 60.3859 242.813 60.2505 240.962C60.1151 239.066 60.0473 236.989 60.0473 234.732C60.0473 232.52 60.1151 230.488 60.2505 228.637C60.3859 226.786 60.7245 225.138 61.2663 223.694C61.808 222.204 62.5981 220.962 63.6364 219.969C64.7199 218.976 66.1646 218.231 67.9704 217.734C69.8214 217.193 72.169 216.922 75.0131 216.922C76.819 216.922 78.6248 217.012 80.4306 217.193C82.2816 217.373 83.9294 217.644 85.3741 218.005V225.657C84.4712 225.522 83.2974 225.409 81.8527 225.319C80.4532 225.229 79.144 225.183 77.925 225.183C76.3449 225.183 75.1034 225.319 74.2005 225.59C73.2976 225.815 72.6204 226.267 72.169 226.944C71.7175 227.576 71.4015 228.524 71.2209 229.788C71.0855 231.052 71.0177 232.7 71.0177 234.732C71.0177 236.763 71.0855 238.434 71.2209 239.743C71.4015 241.007 71.7175 241.978 72.169 242.655C72.6204 243.287 73.3202 243.716 74.2682 243.941C75.2163 244.167 76.4578 244.28 77.9928 244.28C79.0763 244.28 80.2952 244.235 81.6496 244.145C83.0491 244.054 84.3809 243.941 85.645 243.806V251.458C84.1551 251.774 82.4622 252.023 80.5661 252.203C78.6699 252.429 76.8415 252.542 75.0809 252.542ZM107.714 252.542C104.644 252.542 102.093 252.361 100.062 252C98.03 251.639 96.4274 251.052 95.2536 250.239C94.0798 249.427 93.222 248.343 92.6803 246.989C92.1385 245.634 91.7774 243.941 91.5968 241.91C91.4613 239.878 91.3936 237.463 91.3936 234.664C91.3936 231.865 91.4613 229.472 91.5968 227.486C91.7774 225.454 92.1385 223.761 92.6803 222.407C93.222 221.053 94.0798 219.969 95.2536 219.156C96.4274 218.344 98.03 217.78 100.062 217.464C102.093 217.102 104.644 216.922 107.714 216.922C110.829 216.922 113.402 217.102 115.434 217.464C117.465 217.78 119.068 218.344 120.242 219.156C121.416 219.969 122.273 221.053 122.815 222.407C123.357 223.761 123.695 225.454 123.831 227.486C124.011 229.472 124.102 231.865 124.102 234.664C124.102 237.463 124.011 239.878 123.831 241.91C123.695 243.941 123.357 245.634 122.815 246.989C122.273 248.343 121.416 249.427 120.242 250.239C119.068 251.052 117.465 251.639 115.434 252C113.402 252.361 110.829 252.542 107.714 252.542ZM107.714 244.28C109.068 244.28 110.129 244.19 110.897 244.009C111.664 243.829 112.206 243.422 112.522 242.79C112.838 242.158 113.018 241.188 113.064 239.878C113.154 238.569 113.199 236.831 113.199 234.664C113.199 232.497 113.154 230.782 113.064 229.517C113.018 228.253 112.838 227.305 112.522 226.673C112.206 226.041 111.664 225.635 110.897 225.454C110.129 225.274 109.068 225.183 107.714 225.183C106.359 225.183 105.299 225.274 104.531 225.454C103.809 225.635 103.29 226.041 102.974 226.673C102.657 227.305 102.454 228.253 102.364 229.517C102.319 230.782 102.296 232.497 102.296 234.664C102.296 236.831 102.319 238.569 102.364 239.878C102.454 241.188 102.657 242.158 102.974 242.79C103.29 243.422 103.809 243.829 104.531 244.009C105.299 244.19 106.359 244.28 107.714 244.28ZM131.364 252V217.464H141.657L141.928 221.662H142.538C143.215 220.488 144.05 219.563 145.043 218.886C146.036 218.163 147.165 217.667 148.429 217.396C149.693 217.08 151.07 216.922 152.56 216.922C154.862 216.922 156.691 217.215 158.045 217.802C159.445 218.389 160.506 219.247 161.228 220.375C161.95 221.504 162.424 222.904 162.65 224.574C162.921 226.244 163.056 228.186 163.056 230.398V252H152.154V233.716C152.154 231.865 152.108 230.42 152.018 229.382C151.928 228.299 151.725 227.508 151.409 227.012C151.093 226.515 150.596 226.222 149.919 226.132C149.287 225.996 148.429 225.928 147.346 225.928C146.217 225.928 145.291 226.064 144.569 226.335C143.892 226.56 143.373 226.967 143.012 227.554C142.696 228.14 142.47 228.976 142.334 230.059C142.244 231.098 142.199 232.407 142.199 233.987V252H131.364ZM187.491 252.542C184.24 252.542 181.554 252.339 179.432 251.932C177.31 251.526 175.617 250.894 174.353 250.036C173.134 249.133 172.209 247.982 171.577 246.583C170.99 245.183 170.606 243.513 170.425 241.571C170.29 239.63 170.222 237.373 170.222 234.799C170.222 231.684 170.358 228.998 170.629 226.741C170.945 224.484 171.622 222.633 172.66 221.188C173.698 219.743 175.301 218.682 177.468 218.005C179.68 217.283 182.66 216.922 186.407 216.922C189.432 216.922 191.892 217.148 193.788 217.599C195.684 218.005 197.174 218.66 198.258 219.563C199.386 220.421 200.176 221.549 200.628 222.949C201.125 224.348 201.441 226.041 201.576 228.028C201.711 229.969 201.779 232.226 201.779 234.799V237.441H180.99C180.99 238.975 181.057 240.217 181.193 241.165C181.328 242.068 181.689 242.745 182.276 243.197C182.863 243.648 183.766 243.964 184.985 244.145C186.204 244.28 187.897 244.348 190.064 244.348C190.922 244.348 191.937 244.325 193.111 244.28C194.285 244.235 195.504 244.167 196.768 244.077C198.077 243.987 199.296 243.896 200.425 243.806V251.391C199.432 251.616 198.213 251.819 196.768 252C195.368 252.181 193.856 252.316 192.231 252.406C190.606 252.497 189.025 252.542 187.491 252.542ZM191.554 232.903V231.82C191.554 230.195 191.463 228.908 191.283 227.96C191.147 227.012 190.876 226.312 190.47 225.861C190.109 225.364 189.59 225.048 188.913 224.913C188.235 224.777 187.378 224.709 186.339 224.709C185.166 224.709 184.217 224.8 183.495 224.98C182.818 225.116 182.299 225.432 181.938 225.928C181.576 226.425 181.328 227.147 181.193 228.095C181.057 229.043 180.99 230.285 180.99 231.82H192.705L191.554 232.903ZM205.682 252L217.262 234.461L206.089 217.464H218.075L224.17 227.283H224.644L230.671 217.464H241.98L230.874 234.393L242.454 252H230.535L223.966 241.571H223.425L217.059 252H205.682ZM259.618 252.542C256.548 252.542 253.997 252.361 251.965 252C249.934 251.639 248.331 251.052 247.157 250.239C245.984 249.427 245.126 248.343 244.584 246.989C244.042 245.634 243.681 243.941 243.501 241.91C243.365 239.878 243.297 237.463 243.297 234.664C243.297 231.865 243.365 229.472 243.501 227.486C243.681 225.454 244.042 223.761 244.584 222.407C245.126 221.053 245.984 219.969 247.157 219.156C248.331 218.344 249.934 217.78 251.965 217.464C253.997 217.102 256.548 216.922 259.618 216.922C262.733 216.922 265.306 217.102 267.338 217.464C269.369 217.78 270.972 218.344 272.146 219.156C273.319 219.969 274.177 221.053 274.719 222.407C275.261 223.761 275.599 225.454 275.735 227.486C275.915 229.472 276.006 231.865 276.006 234.664C276.006 237.463 275.915 239.878 275.735 241.91C275.599 243.941 275.261 245.634 274.719 246.989C274.177 248.343 273.319 249.427 272.146 250.239C270.972 251.052 269.369 251.639 267.338 252C265.306 252.361 262.733 252.542 259.618 252.542ZM259.618 244.28C260.972 244.28 262.033 244.19 262.8 244.009C263.568 243.829 264.11 243.422 264.426 242.79C264.742 242.158 264.922 241.188 264.967 239.878C265.058 238.569 265.103 236.831 265.103 234.664C265.103 232.497 265.058 230.782 264.967 229.517C264.922 228.253 264.742 227.305 264.426 226.673C264.11 226.041 263.568 225.635 262.8 225.454C262.033 225.274 260.972 225.183 259.618 225.183C258.263 225.183 257.202 225.274 256.435 225.454C255.713 225.635 255.193 226.041 254.877 226.673C254.561 227.305 254.358 228.253 254.268 229.517C254.223 230.782 254.2 232.497 254.2 234.664C254.2 236.831 254.223 238.569 254.268 239.878C254.358 241.188 254.561 242.158 254.877 242.79C255.193 243.422 255.713 243.829 256.435 244.009C257.202 244.19 258.263 244.28 259.618 244.28ZM246.751 213.265C246.751 211.188 246.841 209.45 247.022 208.051C247.248 206.651 247.789 205.568 248.647 204.8C249.55 204.033 251.017 203.649 253.049 203.649C254.358 203.649 255.667 203.784 256.977 204.055C258.286 204.326 259.505 204.62 260.633 204.936C261.536 205.161 262.372 205.364 263.139 205.545C263.952 205.726 264.697 205.816 265.374 205.816C266.232 205.816 266.728 205.613 266.864 205.206C266.999 204.8 267.067 204.033 267.067 202.904H272.484C272.484 204.89 272.371 206.606 272.146 208.051C271.965 209.495 271.423 210.601 270.52 211.369C269.663 212.091 268.218 212.452 266.186 212.452C264.832 212.452 263.523 212.317 262.259 212.046C261.04 211.73 259.843 211.459 258.67 211.233C257.722 210.963 256.841 210.737 256.029 210.556C255.216 210.376 254.516 210.285 253.929 210.285C253.072 210.285 252.552 210.511 252.372 210.963C252.236 211.369 252.169 212.136 252.169 213.265H246.751ZM299.385 252.542C296.134 252.542 293.448 252.339 291.326 251.932C289.204 251.526 287.512 250.894 286.247 250.036C285.029 249.133 284.103 247.982 283.471 246.583C282.884 245.183 282.5 243.513 282.32 241.571C282.184 239.63 282.117 237.373 282.117 234.799C282.117 231.684 282.252 228.998 282.523 226.741C282.839 224.484 283.516 222.633 284.554 221.188C285.593 219.743 287.196 218.682 289.362 218.005C291.575 217.283 294.554 216.922 298.301 216.922C301.326 216.922 303.787 217.148 305.683 217.599C307.579 218.005 309.069 218.66 310.152 219.563C311.281 220.421 312.071 221.549 312.522 222.949C313.019 224.348 313.335 226.041 313.47 228.028C313.606 229.969 313.673 232.226 313.673 234.799V237.441H292.884C292.884 238.975 292.952 240.217 293.087 241.165C293.222 242.068 293.584 242.745 294.171 243.197C294.757 243.648 295.66 243.964 296.879 244.145C298.098 244.28 299.791 244.348 301.958 244.348C302.816 244.348 303.832 244.325 305.005 244.28C306.179 244.235 307.398 244.167 308.662 244.077C309.972 243.987 311.19 243.896 312.319 243.806V251.391C311.326 251.616 310.107 251.819 308.662 252C307.263 252.181 305.75 252.316 304.125 252.406C302.5 252.497 300.92 252.542 299.385 252.542ZM303.448 232.903V231.82C303.448 230.195 303.358 228.908 303.177 227.96C303.042 227.012 302.771 226.312 302.364 225.861C302.003 225.364 301.484 225.048 300.807 224.913C300.13 224.777 299.272 224.709 298.234 224.709C297.06 224.709 296.112 224.8 295.389 224.98C294.712 225.116 294.193 225.432 293.832 225.928C293.471 226.425 293.222 227.147 293.087 228.095C292.952 229.043 292.884 230.285 292.884 231.82H304.599L303.448 232.903ZM334.371 252.542C332.926 252.542 331.346 252.497 329.631 252.406C327.96 252.316 326.313 252.203 324.687 252.068C323.107 251.932 321.685 251.774 320.421 251.594V243.941C321.143 243.987 321.956 244.054 322.859 244.145C323.807 244.235 324.778 244.303 325.771 244.348C326.764 244.393 327.712 244.438 328.615 244.483C329.563 244.483 330.421 244.483 331.188 244.483C333.31 244.483 334.822 244.416 335.725 244.28C336.673 244.145 337.26 243.874 337.486 243.467C337.757 243.016 337.892 242.429 337.892 241.707C337.892 240.984 337.802 240.465 337.622 240.149C337.486 239.833 337.17 239.608 336.673 239.472C336.222 239.337 335.432 239.201 334.303 239.066L326.245 238.05C324.304 237.779 322.836 237.215 321.843 236.357C320.85 235.454 320.173 234.258 319.812 232.768C319.496 231.233 319.337 229.45 319.337 227.418C319.337 225.025 319.699 223.152 320.421 221.798C321.143 220.398 322.137 219.36 323.401 218.682C324.71 217.96 326.245 217.486 328.005 217.26C329.811 217.035 331.73 216.922 333.762 216.922C335.206 216.922 336.696 216.967 338.231 217.057C339.766 217.148 341.233 217.283 342.633 217.464C344.032 217.599 345.183 217.757 346.086 217.938V225.522C344.958 225.432 343.761 225.341 342.497 225.251C341.278 225.161 340.105 225.093 338.976 225.048C337.847 225.003 336.899 224.98 336.132 224.98C334.326 224.98 332.926 225.025 331.933 225.116C330.985 225.206 330.33 225.432 329.969 225.793C329.653 226.154 329.495 226.741 329.495 227.554C329.495 228.186 329.54 228.682 329.631 229.043C329.766 229.359 330.06 229.585 330.511 229.721C330.963 229.856 331.662 229.991 332.61 230.127L340.737 231.143C342.272 231.323 343.581 231.684 344.664 232.226C345.748 232.768 346.56 233.739 347.102 235.138C347.689 236.538 347.982 238.637 347.982 241.436C347.982 243.964 347.644 245.973 346.967 247.463C346.335 248.908 345.409 250.014 344.19 250.781C342.971 251.503 341.527 251.977 339.856 252.203C338.231 252.429 336.403 252.542 334.371 252.542ZM61.1986 327V276.685H72.0335V296.459H72.643C73.3202 295.33 74.1328 294.45 75.0809 293.818C76.0741 293.141 77.1801 292.667 78.3991 292.396C79.618 292.125 80.9498 291.989 82.3945 291.989C84.6969 291.989 86.5253 292.283 87.8797 292.87C89.2792 293.412 90.3401 294.247 91.0624 295.375C91.7848 296.504 92.2588 297.904 92.4845 299.574C92.7554 301.244 92.8908 303.186 92.8908 305.398V327H81.9882V308.716C81.9882 306.865 81.943 305.42 81.8527 304.382C81.7624 303.299 81.5593 302.508 81.2432 302.012C80.9272 301.515 80.4306 301.222 79.7534 301.132C79.1214 300.996 78.2636 300.928 77.1801 300.928C76.0515 300.928 75.126 301.064 74.4037 301.335C73.7265 301.56 73.2073 301.967 72.8461 302.554C72.5301 303.14 72.3044 303.976 72.169 305.059C72.0787 306.098 72.0335 307.407 72.0335 308.987V327H61.1986ZM111.704 327.542C109.402 327.542 107.551 327.248 106.152 326.661C104.752 326.075 103.691 325.217 102.969 324.088C102.246 322.959 101.772 321.56 101.547 319.89C101.321 318.219 101.208 316.278 101.208 314.066V292.464H112.043V310.748C112.043 312.599 112.088 314.066 112.178 315.149C112.314 316.188 112.54 316.955 112.856 317.452C113.172 317.948 113.646 318.264 114.278 318.4C114.91 318.49 115.768 318.535 116.851 318.535C118.025 318.535 118.95 318.422 119.628 318.197C120.35 317.926 120.869 317.497 121.185 316.91C121.501 316.323 121.704 315.51 121.795 314.472C121.93 313.389 121.998 312.057 121.998 310.477V292.464H132.9V327H122.539L122.269 322.801H121.659C121.027 323.975 120.214 324.923 119.221 325.646C118.228 326.323 117.099 326.797 115.835 327.068C114.571 327.384 113.194 327.542 111.704 327.542ZM141.218 327V292.464H151.511L151.782 296.662H152.391C153.023 295.488 153.813 294.563 154.761 293.886C155.754 293.163 156.861 292.667 158.079 292.396C159.298 292.08 160.608 291.922 162.007 291.922C164.716 291.922 166.77 292.306 168.17 293.073C169.569 293.795 170.562 294.992 171.149 296.662H171.759C172.436 295.488 173.271 294.563 174.264 293.886C175.257 293.163 176.364 292.667 177.582 292.396C178.847 292.08 180.178 291.922 181.578 291.922C184.512 291.922 186.679 292.441 188.079 293.479C189.523 294.518 190.472 296.03 190.923 298.016C191.42 300.003 191.668 302.463 191.668 305.398V327H180.833V308.716C180.833 306.865 180.765 305.42 180.63 304.382C180.539 303.299 180.359 302.508 180.088 302.012C179.817 301.515 179.388 301.222 178.801 301.132C178.214 300.996 177.447 300.928 176.499 300.928C175.461 300.928 174.625 301.064 173.993 301.335C173.361 301.56 172.887 301.967 172.571 302.554C172.255 303.14 172.052 303.953 171.962 304.991C171.917 306.03 171.894 307.362 171.894 308.987V327H160.991V308.716C160.991 306.865 160.946 305.42 160.856 304.382C160.766 303.299 160.563 302.508 160.246 302.012C159.976 301.515 159.547 301.222 158.96 301.132C158.418 300.996 157.673 300.928 156.725 300.928C155.687 300.928 154.852 301.064 154.22 301.335C153.587 301.56 153.113 301.967 152.797 302.554C152.481 303.14 152.278 303.976 152.188 305.059C152.098 306.098 152.053 307.407 152.053 308.987V327H141.218ZM208.538 327.542C206.371 327.542 204.542 327.203 203.053 326.526C201.563 325.849 200.434 324.743 199.667 323.208C198.944 321.673 198.583 319.664 198.583 317.181C198.583 314.562 198.877 312.486 199.463 310.951C200.096 309.371 201.202 308.242 202.782 307.565C204.362 306.888 206.596 306.549 209.486 306.549C209.892 306.549 210.456 306.572 211.179 306.617C211.946 306.617 212.804 306.639 213.752 306.684C214.7 306.684 215.648 306.707 216.596 306.752C217.544 306.752 218.402 306.775 219.17 306.82V305.533C219.17 304.224 219.057 303.208 218.831 302.486C218.65 301.764 218.267 301.244 217.68 300.928C217.138 300.567 216.303 300.364 215.174 300.319C214.046 300.229 212.556 300.183 210.705 300.183C209.666 300.183 208.515 300.206 207.251 300.251C206.032 300.296 204.813 300.364 203.594 300.454C202.421 300.499 201.427 300.567 200.615 300.657V293.005C202.466 292.689 204.542 292.441 206.845 292.26C209.192 292.035 211.653 291.922 214.226 291.922C217.115 291.922 219.508 292.102 221.404 292.464C223.346 292.825 224.903 293.389 226.077 294.156C227.251 294.879 228.108 295.804 228.65 296.933C229.237 298.062 229.621 299.393 229.801 300.928C229.982 302.463 230.072 304.201 230.072 306.143V327H219.644L219.373 322.937H218.831C217.973 324.291 216.98 325.307 215.851 325.984C214.723 326.661 213.526 327.09 212.262 327.271C210.998 327.451 209.757 327.542 208.538 327.542ZM213.684 319.822C214.497 319.822 215.197 319.777 215.784 319.686C216.416 319.551 216.935 319.348 217.341 319.077C217.793 318.761 218.154 318.377 218.425 317.926C218.65 317.429 218.831 316.82 218.966 316.097C219.102 315.375 219.17 314.517 219.17 313.524V312.237H212.872C211.743 312.237 210.885 312.328 210.298 312.508C209.712 312.644 209.305 313.005 209.08 313.592C208.899 314.133 208.809 314.991 208.809 316.165C208.809 317.158 208.922 317.926 209.147 318.467C209.373 319.009 209.824 319.37 210.502 319.551C211.224 319.732 212.285 319.822 213.684 319.822ZM238.497 327V292.464H248.79L249.061 296.662H249.67C250.348 295.488 251.183 294.563 252.176 293.886C253.169 293.163 254.298 292.667 255.562 292.396C256.826 292.08 258.203 291.922 259.693 291.922C261.995 291.922 263.824 292.215 265.178 292.802C266.578 293.389 267.638 294.247 268.361 295.375C269.083 296.504 269.557 297.904 269.783 299.574C270.054 301.244 270.189 303.186 270.189 305.398V327H259.286V308.716C259.286 306.865 259.241 305.42 259.151 304.382C259.061 303.299 258.858 302.508 258.542 302.012C258.226 301.515 257.729 301.222 257.052 301.132C256.42 300.996 255.562 300.928 254.478 300.928C253.35 300.928 252.424 301.064 251.702 301.335C251.025 301.56 250.506 301.967 250.144 302.554C249.828 303.14 249.603 303.976 249.467 305.059C249.377 306.098 249.332 307.407 249.332 308.987V327H238.497ZM278.371 285.421V276.685H289.545V285.421H278.371ZM278.506 327V292.464H289.477V327H278.506ZM296.596 327V319.28L312.51 300.725H297.409V292.464H326.257V300.183L310.411 318.738H326.392V327H296.596ZM341.925 327.542C339.758 327.542 337.929 327.203 336.44 326.526C334.95 325.849 333.821 324.743 333.054 323.208C332.331 321.673 331.97 319.664 331.97 317.181C331.97 314.562 332.264 312.486 332.851 310.951C333.483 309.371 334.589 308.242 336.169 307.565C337.749 306.888 339.984 306.549 342.873 306.549C343.279 306.549 343.844 306.572 344.566 306.617C345.333 306.617 346.191 306.639 347.139 306.684C348.087 306.684 349.035 306.707 349.983 306.752C350.931 306.752 351.789 306.775 352.557 306.82V305.533C352.557 304.224 352.444 303.208 352.218 302.486C352.037 301.764 351.654 301.244 351.067 300.928C350.525 300.567 349.69 300.364 348.561 300.319C347.433 300.229 345.943 300.183 344.092 300.183C343.053 300.183 341.902 300.206 340.638 300.251C339.419 300.296 338.2 300.364 336.981 300.454C335.808 300.499 334.814 300.567 334.002 300.657V293.005C335.853 292.689 337.929 292.441 340.232 292.26C342.579 292.035 345.04 291.922 347.613 291.922C350.503 291.922 352.895 292.102 354.791 292.464C356.733 292.825 358.29 293.389 359.464 294.156C360.638 294.879 361.495 295.804 362.037 296.933C362.624 298.062 363.008 299.393 363.188 300.928C363.369 302.463 363.459 304.201 363.459 306.143V327H353.031L352.76 322.937H352.218C351.36 324.291 350.367 325.307 349.238 325.984C348.11 326.661 346.913 327.09 345.649 327.271C344.385 327.451 343.144 327.542 341.925 327.542ZM347.071 319.822C347.884 319.822 348.584 319.777 349.171 319.686C349.803 319.551 350.322 319.348 350.728 319.077C351.18 318.761 351.541 318.377 351.812 317.926C352.037 317.429 352.218 316.82 352.353 316.097C352.489 315.375 352.557 314.517 352.557 313.524V312.237H346.259C345.13 312.237 344.272 312.328 343.685 312.508C343.099 312.644 342.692 313.005 342.467 313.592C342.286 314.133 342.196 314.991 342.196 316.165C342.196 317.158 342.309 317.926 342.534 318.467C342.76 319.009 343.211 319.37 343.889 319.551C344.611 319.732 345.672 319.822 347.071 319.822ZM382.042 327.542C380.055 327.542 378.34 327.271 376.895 326.729C375.45 326.187 374.277 325.262 373.374 323.953C372.471 322.598 371.794 320.77 371.342 318.467C370.936 316.165 370.733 313.276 370.733 309.799C370.733 306.368 370.936 303.502 371.342 301.199C371.749 298.852 372.403 297.023 373.306 295.714C374.209 294.36 375.36 293.389 376.76 292.802C378.204 292.215 379.942 291.922 381.974 291.922C383.328 291.922 384.592 292.035 385.766 292.26C386.985 292.486 388.091 292.892 389.084 293.479C390.078 294.066 390.935 294.947 391.658 296.12H392.2V276.685H403.102V327H392.741L392.47 322.869H391.929C391.251 324.178 390.371 325.172 389.288 325.849C388.249 326.481 387.098 326.91 385.834 327.135C384.615 327.406 383.351 327.542 382.042 327.542ZM386.917 318.603C388.317 318.603 389.355 318.445 390.033 318.129C390.755 317.768 391.274 317.136 391.59 316.233C391.861 315.42 392.019 314.495 392.064 313.456C392.154 312.373 392.2 311.131 392.2 309.732C392.2 308.332 392.154 307.113 392.064 306.075C392.019 305.037 391.861 304.156 391.59 303.434C391.319 302.441 390.823 301.764 390.1 301.402C389.378 301.041 388.317 300.861 386.917 300.861C385.699 300.861 384.728 300.951 384.006 301.132C383.283 301.312 382.741 301.696 382.38 302.283C382.064 302.824 381.861 303.682 381.771 304.856C381.681 306.03 381.635 307.655 381.635 309.732C381.635 311.808 381.681 313.456 381.771 314.675C381.861 315.849 382.064 316.729 382.38 317.316C382.741 317.858 383.283 318.219 384.006 318.4C384.728 318.535 385.699 318.603 386.917 318.603ZM419.894 327.542C417.727 327.542 415.898 327.203 414.409 326.526C412.919 325.849 411.79 324.743 411.023 323.208C410.3 321.673 409.939 319.664 409.939 317.181C409.939 314.562 410.233 312.486 410.819 310.951C411.452 309.371 412.558 308.242 414.138 307.565C415.718 306.888 417.952 306.549 420.842 306.549C421.248 306.549 421.812 306.572 422.535 306.617C423.302 306.617 424.16 306.639 425.108 306.684C426.056 306.684 427.004 306.707 427.952 306.752C428.9 306.752 429.758 306.775 430.526 306.82V305.533C430.526 304.224 430.413 303.208 430.187 302.486C430.006 301.764 429.623 301.244 429.036 300.928C428.494 300.567 427.659 300.364 426.53 300.319C425.402 300.229 423.912 300.183 422.061 300.183C421.022 300.183 419.871 300.206 418.607 300.251C417.388 300.296 416.169 300.364 414.95 300.454C413.777 300.499 412.783 300.567 411.971 300.657V293.005C413.822 292.689 415.898 292.441 418.201 292.26C420.548 292.035 423.009 291.922 425.582 291.922C428.471 291.922 430.864 292.102 432.76 292.464C434.702 292.825 436.259 293.389 437.433 294.156C438.607 294.879 439.464 295.804 440.006 296.933C440.593 298.062 440.977 299.393 441.157 300.928C441.338 302.463 441.428 304.201 441.428 306.143V327H431L430.729 322.937H430.187C429.329 324.291 428.336 325.307 427.207 325.984C426.079 326.661 424.882 327.09 423.618 327.271C422.354 327.451 421.113 327.542 419.894 327.542ZM425.04 319.822C425.853 319.822 426.553 319.777 427.14 319.686C427.772 319.551 428.291 319.348 428.697 319.077C429.149 318.761 429.51 318.377 429.781 317.926C430.006 317.429 430.187 316.82 430.322 316.097C430.458 315.375 430.526 314.517 430.526 313.524V312.237H424.228C423.099 312.237 422.241 312.328 421.654 312.508C421.068 312.644 420.661 313.005 420.435 313.592C420.255 314.133 420.165 314.991 420.165 316.165C420.165 317.158 420.277 317.926 420.503 318.467C420.729 319.009 421.18 319.37 421.858 319.551C422.58 319.732 423.641 319.822 425.04 319.822ZM463.261 327.542C461.816 327.542 460.236 327.497 458.521 327.406C456.85 327.316 455.203 327.203 453.577 327.068C451.997 326.932 450.575 326.774 449.311 326.594V318.941C450.033 318.987 450.846 319.054 451.749 319.145C452.697 319.235 453.668 319.303 454.661 319.348C455.654 319.393 456.602 319.438 457.505 319.483C458.453 319.483 459.311 319.483 460.078 319.483C462.2 319.483 463.713 319.416 464.616 319.28C465.564 319.145 466.15 318.874 466.376 318.467C466.647 318.016 466.783 317.429 466.783 316.707C466.783 315.984 466.692 315.465 466.512 315.149C466.376 314.833 466.06 314.608 465.564 314.472C465.112 314.337 464.322 314.201 463.193 314.066L455.135 313.05C453.194 312.779 451.726 312.215 450.733 311.357C449.74 310.454 449.063 309.258 448.702 307.768C448.386 306.233 448.228 304.45 448.228 302.418C448.228 300.025 448.589 298.152 449.311 296.798C450.033 295.398 451.027 294.36 452.291 293.682C453.6 292.96 455.135 292.486 456.896 292.26C458.701 292.035 460.62 291.922 462.652 291.922C464.096 291.922 465.586 291.967 467.121 292.057C468.656 292.148 470.123 292.283 471.523 292.464C472.922 292.599 474.074 292.757 474.976 292.938V300.522C473.848 300.432 472.651 300.341 471.387 300.251C470.168 300.161 468.995 300.093 467.866 300.048C466.737 300.003 465.789 299.98 465.022 299.98C463.216 299.98 461.816 300.025 460.823 300.116C459.875 300.206 459.221 300.432 458.859 300.793C458.543 301.154 458.385 301.741 458.385 302.554C458.385 303.186 458.431 303.682 458.521 304.043C458.656 304.359 458.95 304.585 459.401 304.721C459.853 304.856 460.552 304.991 461.5 305.127L469.627 306.143C471.162 306.323 472.471 306.684 473.554 307.226C474.638 307.768 475.45 308.739 475.992 310.138C476.579 311.538 476.873 313.637 476.873 316.436C476.873 318.964 476.534 320.973 475.857 322.463C475.225 323.908 474.299 325.014 473.08 325.781C471.861 326.503 470.417 326.977 468.746 327.203C467.121 327.429 465.293 327.542 463.261 327.542ZM483.848 327V317.181H495.427V327H483.848Z" fill="#E5E5E5"/>
<path d="M40.6775 104.114L6.13185 91.2454V81.1408L40.6775 68.1862V78.2908L17.8774 86.1499L40.6775 94.009V104.114Z" fill="#FF4800"/>
<path d="M518.338 325.924V315.82L541.052 307.96L518.338 300.101V289.997L552.884 302.951V313.056L518.338 325.924Z" fill="#FF4800"/>
</svg>
