<svg width="603" height="340" viewBox="0 0 603 340" fill="none" xmlns="http://www.w3.org/2000/svg">
<path d="M77.8592 109.455V72.3453H65.1281V62.8647H102.441V72.3453H89.6422V109.455H77.8592ZM107.853 109.455V74.9186H118.146L118.417 80.8101H119.026C119.658 79.1397 120.448 77.8305 121.396 76.8824C122.39 75.9344 123.586 75.2798 124.986 74.9186C126.385 74.5574 128.01 74.3769 129.861 74.3769V84.3315C127.017 84.3315 124.782 84.6927 123.157 85.415C121.532 86.1373 120.381 87.3788 119.703 89.1395C119.026 90.855 118.688 93.2703 118.688 96.3854V109.455H107.853ZM143.364 109.997C141.197 109.997 139.368 109.658 137.878 108.981C136.389 108.304 135.26 107.198 134.493 105.663C133.77 104.128 133.409 102.119 133.409 99.6359C133.409 97.0174 133.703 94.9407 134.289 93.4058C134.921 91.8257 136.028 90.697 137.608 90.0198C139.188 89.3427 141.422 89.0041 144.312 89.0041C144.718 89.0041 145.282 89.0266 146.005 89.0718C146.772 89.0718 147.63 89.0944 148.578 89.1395C149.526 89.1395 150.474 89.1621 151.422 89.2072C152.37 89.2072 153.228 89.2298 153.996 89.2749V87.9883C153.996 86.6791 153.883 85.6633 153.657 84.941C153.476 84.2186 153.093 83.6994 152.506 83.3834C151.964 83.0223 151.129 82.8191 150 82.774C148.871 82.6837 147.382 82.6385 145.531 82.6385C144.492 82.6385 143.341 82.6611 142.077 82.7062C140.858 82.7514 139.639 82.8191 138.42 82.9094C137.246 82.9545 136.253 83.0223 135.441 83.1126V75.4604C137.292 75.1443 139.368 74.896 141.671 74.7155C144.018 74.4897 146.479 74.3769 149.052 74.3769C151.941 74.3769 154.334 74.5574 156.23 74.9186C158.171 75.2798 159.729 75.8441 160.903 76.6116C162.077 77.3339 162.934 78.2594 163.476 79.388C164.063 80.5167 164.447 81.8485 164.627 83.3834C164.808 84.9184 164.898 86.6565 164.898 88.5978V109.455H154.47L154.199 105.392H153.657C152.799 106.746 151.806 107.762 150.677 108.439C149.549 109.116 148.352 109.545 147.088 109.726C145.824 109.907 144.583 109.997 143.364 109.997ZM148.51 102.277C149.323 102.277 150.023 102.232 150.61 102.141C151.242 102.006 151.761 101.803 152.167 101.532C152.619 101.216 152.98 100.832 153.251 100.381C153.476 99.8842 153.657 99.2747 153.792 98.5524C153.928 97.8301 153.996 96.9723 153.996 95.9791V94.6924H147.698C146.569 94.6924 145.711 94.7827 145.124 94.9633C144.537 95.0987 144.131 95.4599 143.905 96.0468C143.725 96.5885 143.635 97.4463 143.635 98.6201C143.635 99.6133 143.747 100.381 143.973 100.923C144.199 101.464 144.65 101.825 145.328 102.006C146.05 102.187 147.111 102.277 148.51 102.277ZM173.323 109.455V74.9186H183.616L183.887 79.1172H184.496C185.174 77.9434 186.009 77.0179 187.002 76.3407C187.995 75.6184 189.124 75.1218 190.388 74.8509C191.652 74.5349 193.029 74.3769 194.519 74.3769C196.821 74.3769 198.65 74.6703 200.004 75.2572C201.403 75.8441 202.464 76.7019 203.187 77.8305C203.909 78.9591 204.383 80.3587 204.609 82.0291C204.88 83.6994 205.015 85.6407 205.015 87.8529V109.455H194.112V91.1711C194.112 89.3201 194.067 87.8754 193.977 86.8371C193.887 85.7536 193.684 84.9635 193.368 84.4669C193.051 83.9703 192.555 83.6769 191.878 83.5866C191.246 83.4511 190.388 83.3834 189.304 83.3834C188.176 83.3834 187.25 83.5189 186.528 83.7897C185.851 84.0155 185.332 84.4218 184.97 85.0087C184.654 85.5956 184.429 86.4308 184.293 87.5143C184.203 88.5526 184.158 89.8618 184.158 91.4419V109.455H173.323ZM226.741 109.997C225.296 109.997 223.716 109.952 222 109.861C220.33 109.771 218.682 109.658 217.057 109.523C215.477 109.387 214.055 109.229 212.791 109.049V101.397C213.513 101.442 214.326 101.509 215.228 101.6C216.176 101.69 217.147 101.758 218.14 101.803C219.134 101.848 220.082 101.893 220.985 101.938C221.933 101.938 222.79 101.938 223.558 101.938C225.68 101.938 227.192 101.871 228.095 101.735C229.043 101.6 229.63 101.329 229.856 100.923C230.127 100.471 230.262 99.8842 230.262 99.1619C230.262 98.4395 230.172 97.9203 229.991 97.6043C229.856 97.2883 229.54 97.0626 229.043 96.9271C228.592 96.7917 227.802 96.6563 226.673 96.5208L218.614 95.5051C216.673 95.2342 215.206 94.6699 214.213 93.8121C213.219 92.9092 212.542 91.7128 212.181 90.223C211.865 88.688 211.707 86.9048 211.707 84.8732C211.707 82.4805 212.068 80.607 212.791 79.2526C213.513 77.8531 214.506 76.8147 215.77 76.1375C217.079 75.4152 218.614 74.9412 220.375 74.7155C222.181 74.4897 224.1 74.3769 226.131 74.3769C227.576 74.3769 229.066 74.422 230.601 74.5123C232.135 74.6026 233.603 74.738 235.002 74.9186C236.402 75.054 237.553 75.2121 238.456 75.3926V82.9771C237.327 82.8868 236.131 82.7965 234.867 82.7062C233.648 82.616 232.474 82.5482 231.345 82.5031C230.217 82.4579 229.269 82.4354 228.501 82.4354C226.695 82.4354 225.296 82.4805 224.303 82.5708C223.355 82.6611 222.7 82.8868 222.339 83.248C222.023 83.6092 221.865 84.1961 221.865 85.0087C221.865 85.6407 221.91 86.1373 222 86.4985C222.136 86.8145 222.429 87.0402 222.881 87.1757C223.332 87.3111 224.032 87.4465 224.98 87.582L233.106 88.5978C234.641 88.7783 235.95 89.1395 237.034 89.6813C238.117 90.223 238.93 91.1936 239.472 92.5932C240.059 93.9927 240.352 96.0919 240.352 98.891C240.352 101.419 240.013 103.428 239.336 104.918C238.704 106.363 237.779 107.469 236.56 108.236C235.341 108.958 233.896 109.433 232.226 109.658C230.601 109.884 228.772 109.997 226.741 109.997ZM250.713 109.455V83.1803H244.347V74.9186H250.713V72.5485C250.713 69.93 250.871 67.8082 251.187 66.1829C251.503 64.5125 252.067 63.2033 252.88 62.2552C253.693 61.3072 254.821 60.63 256.266 60.2237C257.756 59.7722 259.607 59.5013 261.819 59.4111C264.076 59.2756 266.762 59.2079 269.877 59.2079V66.6569C268.026 66.6569 266.537 66.7021 265.408 66.7924C264.324 66.8827 263.512 67.0858 262.97 67.4018C262.428 67.6727 262.067 68.1016 261.887 68.6885C261.751 69.2302 261.683 70.0203 261.683 71.0586V74.9186H269.877V83.1803H261.683V109.455H250.713ZM290.599 109.997C287.529 109.997 284.978 109.816 282.946 109.455C280.915 109.094 279.312 108.507 278.138 107.694C276.965 106.882 276.107 105.798 275.565 104.444C275.023 103.09 274.662 101.397 274.482 99.365C274.346 97.3335 274.279 94.9182 274.279 92.1191C274.279 89.3201 274.346 86.9274 274.482 84.941C274.662 82.9094 275.023 81.2164 275.565 79.8621C276.107 78.5077 276.965 77.4242 278.138 76.6116C279.312 75.7989 280.915 75.2346 282.946 74.9186C284.978 74.5574 287.529 74.3769 290.599 74.3769C293.714 74.3769 296.287 74.5574 298.319 74.9186C300.35 75.2346 301.953 75.7989 303.127 76.6116C304.3 77.4242 305.158 78.5077 305.7 79.8621C306.242 81.2164 306.58 82.9094 306.716 84.941C306.896 86.9274 306.987 89.3201 306.987 92.1191C306.987 94.9182 306.896 97.3335 306.716 99.365C306.58 101.397 306.242 103.09 305.7 104.444C305.158 105.798 304.3 106.882 303.127 107.694C301.953 108.507 300.35 109.094 298.319 109.455C296.287 109.816 293.714 109.997 290.599 109.997ZM290.599 101.735C291.953 101.735 293.014 101.645 293.781 101.464C294.549 101.284 295.091 100.877 295.407 100.245C295.723 99.6133 295.903 98.6427 295.948 97.3335C296.039 96.0242 296.084 94.2861 296.084 92.1191C296.084 89.9521 296.039 88.2366 295.948 86.9725C295.903 85.7084 295.723 84.7604 295.407 84.1283C295.091 83.4963 294.549 83.09 293.781 82.9094C293.014 82.7288 291.953 82.6385 290.599 82.6385C289.244 82.6385 288.183 82.7288 287.416 82.9094C286.694 83.09 286.174 83.4963 285.858 84.1283C285.542 84.7604 285.339 85.7084 285.249 86.9725C285.204 88.2366 285.181 89.9521 285.181 92.1191C285.181 94.2861 285.204 96.0242 285.249 97.3335C285.339 98.6427 285.542 99.6133 285.858 100.245C286.174 100.877 286.694 101.284 287.416 101.464C288.183 101.645 289.244 101.735 290.599 101.735ZM314.249 109.455V74.9186H324.542L324.813 80.8101H325.422C326.054 79.1397 326.844 77.8305 327.793 76.8824C328.786 75.9344 329.982 75.2798 331.382 74.9186C332.781 74.5574 334.406 74.3769 336.257 74.3769V84.3315C333.413 84.3315 331.178 84.6927 329.553 85.415C327.928 86.1373 326.777 87.3788 326.1 89.1395C325.422 90.855 325.084 93.2703 325.084 96.3854V109.455H314.249ZM342.024 109.455V74.9186H352.317L352.588 79.1172H353.198C353.83 77.9434 354.62 77.0179 355.568 76.3407C356.561 75.6184 357.667 75.1218 358.886 74.8509C360.105 74.5349 361.414 74.3769 362.814 74.3769C365.522 74.3769 367.577 74.7606 368.976 75.5281C370.376 76.2504 371.369 77.4468 371.956 79.1172H372.565C373.242 77.9434 374.078 77.0179 375.071 76.3407C376.064 75.6184 377.17 75.1218 378.389 74.8509C379.653 74.5349 380.985 74.3769 382.384 74.3769C385.319 74.3769 387.486 74.896 388.885 75.9344C390.33 76.9727 391.278 78.4851 391.729 80.4715C392.226 82.4579 392.474 84.9184 392.474 87.8529V109.455H381.639V91.1711C381.639 89.3201 381.572 87.8754 381.436 86.8371C381.346 85.7536 381.165 84.9635 380.895 84.4669C380.624 83.9703 380.195 83.6769 379.608 83.5866C379.021 83.4511 378.253 83.3834 377.305 83.3834C376.267 83.3834 375.432 83.5189 374.8 83.7897C374.168 84.0155 373.694 84.4218 373.378 85.0087C373.062 85.5956 372.859 86.4082 372.768 87.4465C372.723 88.4849 372.701 89.8167 372.701 91.4419V109.455H361.798V91.1711C361.798 89.3201 361.753 87.8754 361.662 86.8371C361.572 85.7536 361.369 84.9635 361.053 84.4669C360.782 83.9703 360.353 83.6769 359.766 83.5866C359.225 83.4511 358.48 83.3834 357.532 83.3834C356.493 83.3834 355.658 83.5189 355.026 83.7897C354.394 84.0155 353.92 84.4218 353.604 85.0087C353.288 85.5956 353.085 86.4308 352.994 87.5143C352.904 88.5526 352.859 89.8618 352.859 91.4419V109.455H342.024ZM409.344 109.997C407.177 109.997 405.349 109.658 403.859 108.981C402.369 108.304 401.241 107.198 400.473 105.663C399.751 104.128 399.39 102.119 399.39 99.6359C399.39 97.0174 399.683 94.9407 400.27 93.4058C400.902 91.8257 402.008 90.697 403.588 90.0198C405.168 89.3427 407.403 89.0041 410.292 89.0041C410.699 89.0041 411.263 89.0266 411.985 89.0718C412.753 89.0718 413.611 89.0944 414.559 89.1395C415.507 89.1395 416.455 89.1621 417.403 89.2072C418.351 89.2072 419.209 89.2298 419.976 89.2749V87.9883C419.976 86.6791 419.863 85.6633 419.637 84.941C419.457 84.2186 419.073 83.6994 418.486 83.3834C417.945 83.0223 417.109 82.8191 415.981 82.774C414.852 82.6837 413.362 82.6385 411.511 82.6385C410.473 82.6385 409.322 82.6611 408.058 82.7062C406.839 82.7514 405.62 82.8191 404.401 82.9094C403.227 82.9545 402.234 83.0223 401.421 83.1126V75.4604C403.272 75.1443 405.349 74.896 407.651 74.7155C409.999 74.4897 412.459 74.3769 415.033 74.3769C417.922 74.3769 420.315 74.5574 422.211 74.9186C424.152 75.2798 425.71 75.8441 426.883 76.6116C428.057 77.3339 428.915 78.2594 429.457 79.388C430.044 80.5167 430.427 81.8485 430.608 83.3834C430.788 84.9184 430.879 86.6565 430.879 88.5978V109.455H420.45L420.179 105.392H419.637C418.78 106.746 417.786 107.762 416.658 108.439C415.529 109.116 414.333 109.545 413.069 109.726C411.805 109.907 410.563 109.997 409.344 109.997ZM414.491 102.277C415.303 102.277 416.003 102.232 416.59 102.141C417.222 102.006 417.741 101.803 418.148 101.532C418.599 101.216 418.96 100.832 419.231 100.381C419.457 99.8842 419.637 99.2747 419.773 98.5524C419.908 97.8301 419.976 96.9723 419.976 95.9791V94.6924H413.678C412.55 94.6924 411.692 94.7827 411.105 94.9633C410.518 95.0987 410.112 95.4599 409.886 96.0468C409.705 96.5885 409.615 97.4463 409.615 98.6201C409.615 99.6133 409.728 100.381 409.954 100.923C410.179 101.464 410.631 101.825 411.308 102.006C412.03 102.187 413.091 102.277 414.491 102.277ZM439.303 109.455V74.9186H449.597L449.867 79.1172H450.477C451.154 77.9434 451.989 77.0179 452.982 76.3407C453.976 75.6184 455.104 75.1218 456.368 74.8509C457.633 74.5349 459.009 74.3769 460.499 74.3769C462.802 74.3769 464.63 74.6703 465.984 75.2572C467.384 75.8441 468.445 76.7019 469.167 77.8305C469.89 78.9591 470.364 80.3587 470.589 82.0291C470.86 83.6994 470.996 85.6407 470.996 87.8529V109.455H460.093V91.1711C460.093 89.3201 460.048 87.8754 459.958 86.8371C459.867 85.7536 459.664 84.9635 459.348 84.4669C459.032 83.9703 458.535 83.6769 457.858 83.5866C457.226 83.4511 456.368 83.3834 455.285 83.3834C454.156 83.3834 453.231 83.5189 452.508 83.7897C451.831 84.0155 451.312 84.4218 450.951 85.0087C450.635 85.5956 450.409 86.4308 450.274 87.5143C450.183 88.5526 450.138 89.8618 450.138 91.4419V109.455H439.303ZM489.471 109.997C487.484 109.997 485.769 109.726 484.324 109.184C482.879 108.642 481.706 107.717 480.803 106.408C479.9 105.053 479.223 103.225 478.771 100.923C478.365 98.6201 478.162 95.7308 478.162 92.2546C478.162 88.8235 478.365 85.9567 478.771 83.6543C479.177 81.3067 479.832 79.4783 480.735 78.1691C481.638 76.8147 482.789 75.8441 484.189 75.2572C485.633 74.6703 487.371 74.3769 489.403 74.3769C490.757 74.3769 492.021 74.4897 493.195 74.7155C494.414 74.9412 495.52 75.3475 496.513 75.9344C497.507 76.5213 498.364 77.4016 499.087 78.5754H499.628V59.1402H510.531V109.455H500.17L499.899 105.324H499.358C498.68 106.633 497.8 107.627 496.717 108.304C495.678 108.936 494.527 109.365 493.263 109.591C492.044 109.861 490.78 109.997 489.471 109.997ZM494.346 101.058C495.746 101.058 496.784 100.9 497.461 100.584C498.184 100.223 498.703 99.5907 499.019 98.6878C499.29 97.8752 499.448 96.9497 499.493 95.9114C499.583 94.8279 499.628 93.5864 499.628 92.1868C499.628 90.7873 499.583 89.5684 499.493 88.53C499.448 87.4917 499.29 86.6113 499.019 85.889C498.748 84.8958 498.251 84.2186 497.529 83.8575C496.807 83.4963 495.746 83.3157 494.346 83.3157C493.127 83.3157 492.157 83.406 491.434 83.5866C490.712 83.7672 490.17 84.1509 489.809 84.7378C489.493 85.2795 489.29 86.1373 489.2 87.3111C489.109 88.4849 489.064 90.1101 489.064 92.1868C489.064 94.2635 489.109 95.9114 489.2 97.1303C489.29 98.3041 489.493 99.1844 489.809 99.7713C490.17 100.313 490.712 100.674 491.434 100.855C492.157 100.99 493.127 101.058 494.346 101.058ZM534.095 109.997C531.025 109.997 528.474 109.816 526.442 109.455C524.411 109.094 522.808 108.507 521.634 107.694C520.461 106.882 519.603 105.798 519.061 104.444C518.519 103.09 518.158 101.397 517.978 99.365C517.842 97.3335 517.774 94.9182 517.774 92.1191C517.774 89.3201 517.842 86.9274 517.978 84.941C518.158 82.9094 518.519 81.2164 519.061 79.8621C519.603 78.5077 520.461 77.4242 521.634 76.6116C522.808 75.7989 524.411 75.2346 526.442 74.9186C528.474 74.5574 531.025 74.3769 534.095 74.3769C537.21 74.3769 539.783 74.5574 541.814 74.9186C543.846 75.2346 545.449 75.7989 546.622 76.6116C547.796 77.4242 548.654 78.5077 549.196 79.8621C549.738 81.2164 550.076 82.9094 550.212 84.941C550.392 86.9274 550.482 89.3201 550.482 92.1191C550.482 94.9182 550.392 97.3335 550.212 99.365C550.076 101.397 549.738 103.09 549.196 104.444C548.654 105.798 547.796 106.882 546.622 107.694C545.449 108.507 543.846 109.094 541.814 109.455C539.783 109.816 537.21 109.997 534.095 109.997ZM534.095 101.735C535.449 101.735 536.51 101.645 537.277 101.464C538.045 101.284 538.587 100.877 538.903 100.245C539.219 99.6133 539.399 98.6427 539.444 97.3335C539.535 96.0242 539.58 94.2861 539.58 92.1191C539.58 89.9521 539.535 88.2366 539.444 86.9725C539.399 85.7084 539.219 84.7604 538.903 84.1283C538.587 83.4963 538.045 83.09 537.277 82.9094C536.51 82.7288 535.449 82.6385 534.095 82.6385C532.74 82.6385 531.679 82.7288 530.912 82.9094C530.189 83.09 529.67 83.4963 529.354 84.1283C529.038 84.7604 528.835 85.7084 528.745 86.9725C528.7 88.2366 528.677 89.9521 528.677 92.1191C528.677 94.2861 528.7 96.0242 528.745 97.3335C528.835 98.6427 529.038 99.6133 529.354 100.245C529.67 100.877 530.189 101.284 530.912 101.464C531.679 101.645 532.74 101.735 534.095 101.735Z" fill="#E5E5E5"/>
<path d="M189.309 198L178.88 163.464H189.986L196.419 188.316H197.097L203.327 163.464H214.297L203.936 198H189.309ZM219.295 156.421V147.685H230.469V156.421H219.295ZM219.431 198V163.464H230.401V198H219.431ZM248.965 198.542C246.978 198.542 245.263 198.271 243.818 197.729C242.374 197.187 241.2 196.262 240.297 194.953C239.394 193.598 238.717 191.77 238.265 189.467C237.859 187.165 237.656 184.276 237.656 180.799C237.656 177.368 237.859 174.502 238.265 172.199C238.672 169.852 239.326 168.023 240.229 166.714C241.132 165.36 242.283 164.389 243.683 163.802C245.127 163.215 246.866 162.922 248.897 162.922C250.251 162.922 251.516 163.035 252.689 163.26C253.908 163.486 255.014 163.892 256.008 164.479C257.001 165.066 257.859 165.947 258.581 167.12H259.123V147.685H270.025V198H259.664L259.393 193.869H258.852C258.175 195.178 257.294 196.172 256.211 196.849C255.172 197.481 254.021 197.91 252.757 198.135C251.538 198.406 250.274 198.542 248.965 198.542ZM253.841 189.603C255.24 189.603 256.278 189.445 256.956 189.129C257.678 188.768 258.197 188.136 258.513 187.233C258.784 186.42 258.942 185.495 258.987 184.456C259.077 183.373 259.123 182.131 259.123 180.732C259.123 179.332 259.077 178.113 258.987 177.075C258.942 176.037 258.784 175.156 258.513 174.434C258.242 173.441 257.746 172.764 257.023 172.402C256.301 172.041 255.24 171.861 253.841 171.861C252.622 171.861 251.651 171.951 250.929 172.132C250.206 172.312 249.665 172.696 249.303 173.283C248.987 173.824 248.784 174.682 248.694 175.856C248.604 177.03 248.559 178.655 248.559 180.732C248.559 182.808 248.604 184.456 248.694 185.675C248.784 186.849 248.987 187.729 249.303 188.316C249.665 188.858 250.206 189.219 250.929 189.4C251.651 189.535 252.622 189.603 253.841 189.603ZM286.817 198.542C284.65 198.542 282.821 198.203 281.332 197.526C279.842 196.849 278.713 195.743 277.946 194.208C277.223 192.673 276.862 190.664 276.862 188.181C276.862 185.562 277.156 183.486 277.743 181.951C278.375 180.371 279.481 179.242 281.061 178.565C282.641 177.888 284.876 177.549 287.765 177.549C288.171 177.549 288.736 177.572 289.458 177.617C290.225 177.617 291.083 177.639 292.031 177.684C292.979 177.684 293.927 177.707 294.875 177.752C295.823 177.752 296.681 177.775 297.449 177.82V176.533C297.449 175.224 297.336 174.208 297.11 173.486C296.93 172.764 296.546 172.244 295.959 171.928C295.417 171.567 294.582 171.364 293.453 171.319C292.325 171.229 290.835 171.183 288.984 171.183C287.946 171.183 286.794 171.206 285.53 171.251C284.311 171.296 283.092 171.364 281.873 171.454C280.7 171.499 279.706 171.567 278.894 171.657V164.005C280.745 163.689 282.821 163.441 285.124 163.26C287.471 163.035 289.932 162.922 292.505 162.922C295.395 162.922 297.787 163.102 299.683 163.464C301.625 163.825 303.182 164.389 304.356 165.156C305.53 165.879 306.388 166.804 306.929 167.933C307.516 169.062 307.9 170.393 308.08 171.928C308.261 173.463 308.351 175.201 308.351 177.143V198H297.923L297.652 193.937H297.11C296.252 195.291 295.259 196.307 294.13 196.984C293.002 197.661 291.805 198.09 290.541 198.271C289.277 198.451 288.036 198.542 286.817 198.542ZM291.963 190.822C292.776 190.822 293.476 190.777 294.063 190.686C294.695 190.551 295.214 190.348 295.62 190.077C296.072 189.761 296.433 189.377 296.704 188.926C296.93 188.429 297.11 187.82 297.246 187.097C297.381 186.375 297.449 185.517 297.449 184.524V183.237H291.151C290.022 183.237 289.164 183.328 288.578 183.508C287.991 183.644 287.584 184.005 287.359 184.592C287.178 185.133 287.088 185.991 287.088 187.165C287.088 188.158 287.201 188.926 287.426 189.467C287.652 190.009 288.104 190.37 288.781 190.551C289.503 190.732 290.564 190.822 291.963 190.822ZM330.184 198.542C328.74 198.542 327.159 198.497 325.444 198.406C323.774 198.316 322.126 198.203 320.5 198.068C318.92 197.932 317.498 197.774 316.234 197.594V189.941C316.957 189.987 317.769 190.054 318.672 190.145C319.62 190.235 320.591 190.303 321.584 190.348C322.577 190.393 323.525 190.438 324.428 190.483C325.376 190.483 326.234 190.483 327.001 190.483C329.123 190.483 330.636 190.416 331.539 190.28C332.487 190.145 333.074 189.874 333.299 189.467C333.57 189.016 333.706 188.429 333.706 187.707C333.706 186.984 333.615 186.465 333.435 186.149C333.299 185.833 332.983 185.608 332.487 185.472C332.035 185.337 331.245 185.201 330.117 185.066L322.058 184.05C320.117 183.779 318.65 183.215 317.656 182.357C316.663 181.454 315.986 180.258 315.625 178.768C315.309 177.233 315.151 175.45 315.151 173.418C315.151 171.025 315.512 169.152 316.234 167.798C316.957 166.398 317.95 165.36 319.214 164.682C320.523 163.96 322.058 163.486 323.819 163.26C325.625 163.035 327.543 162.922 329.575 162.922C331.019 162.922 332.509 162.967 334.044 163.057C335.579 163.148 337.046 163.283 338.446 163.464C339.845 163.599 340.997 163.757 341.9 163.938V171.522C340.771 171.432 339.575 171.341 338.31 171.251C337.092 171.161 335.918 171.093 334.789 171.048C333.66 171.003 332.712 170.98 331.945 170.98C330.139 170.98 328.74 171.025 327.746 171.116C326.798 171.206 326.144 171.432 325.783 171.793C325.467 172.154 325.309 172.741 325.309 173.554C325.309 174.186 325.354 174.682 325.444 175.043C325.579 175.359 325.873 175.585 326.324 175.721C326.776 175.856 327.476 175.991 328.424 176.127L336.55 177.143C338.085 177.323 339.394 177.684 340.477 178.226C341.561 178.768 342.374 179.739 342.915 181.138C343.502 182.538 343.796 184.637 343.796 187.436C343.796 189.964 343.457 191.973 342.78 193.463C342.148 194.908 341.222 196.014 340.003 196.781C338.785 197.503 337.34 197.977 335.669 198.203C334.044 198.429 332.216 198.542 330.184 198.542ZM383.88 198.542C380.63 198.542 377.944 198.339 375.822 197.932C373.7 197.526 372.007 196.894 370.743 196.036C369.524 195.133 368.598 193.982 367.966 192.583C367.38 191.183 366.996 189.513 366.815 187.571C366.68 185.63 366.612 183.373 366.612 180.799C366.612 177.684 366.748 174.998 367.018 172.741C367.334 170.484 368.012 168.633 369.05 167.188C370.088 165.743 371.691 164.682 373.858 164.005C376.07 163.283 379.05 162.922 382.797 162.922C385.822 162.922 388.282 163.148 390.178 163.599C392.074 164.005 393.564 164.66 394.648 165.563C395.776 166.421 396.566 167.549 397.018 168.949C397.514 170.348 397.83 172.041 397.966 174.028C398.101 175.969 398.169 178.226 398.169 180.799V183.441H377.379C377.379 184.975 377.447 186.217 377.582 187.165C377.718 188.068 378.079 188.745 378.666 189.197C379.253 189.648 380.156 189.964 381.375 190.145C382.594 190.28 384.287 190.348 386.454 190.348C387.311 190.348 388.327 190.325 389.501 190.28C390.675 190.235 391.894 190.167 393.158 190.077C394.467 189.987 395.686 189.896 396.815 189.806V197.391C395.821 197.616 394.602 197.819 393.158 198C391.758 198.181 390.246 198.316 388.621 198.406C386.995 198.497 385.415 198.542 383.88 198.542ZM387.943 178.903V177.82C387.943 176.195 387.853 174.908 387.673 173.96C387.537 173.012 387.266 172.312 386.86 171.861C386.499 171.364 385.98 171.048 385.302 170.913C384.625 170.777 383.767 170.709 382.729 170.709C381.555 170.709 380.607 170.8 379.885 170.98C379.208 171.116 378.689 171.432 378.327 171.928C377.966 172.425 377.718 173.147 377.582 174.095C377.447 175.043 377.379 176.285 377.379 177.82H389.095L387.943 178.903Z" fill="#E5E5E5"/>
<path d="M133.391 201.725L153.029 147.685H162.239L142.533 201.725H133.391Z" fill="#FF4800"/>
<path d="M200.199 287V252.464H210.492L210.763 256.662H211.372C212.049 255.488 212.884 254.563 213.878 253.886C214.871 253.163 216 252.667 217.264 252.396C218.528 252.08 219.905 251.922 221.394 251.922C223.697 251.922 225.525 252.215 226.88 252.802C228.279 253.389 229.34 254.247 230.062 255.375C230.785 256.504 231.259 257.904 231.485 259.574C231.755 261.244 231.891 263.186 231.891 265.398V287H220.988V268.716C220.988 266.865 220.943 265.42 220.853 264.382C220.762 263.299 220.559 262.508 220.243 262.012C219.927 261.515 219.431 261.222 218.753 261.132C218.121 260.996 217.264 260.928 216.18 260.928C215.051 260.928 214.126 261.064 213.404 261.335C212.726 261.56 212.207 261.967 211.846 262.554C211.53 263.14 211.304 263.976 211.169 265.059C211.079 266.098 211.034 267.407 211.034 268.987V287H200.199ZM256.325 287.542C253.075 287.542 250.388 287.339 248.267 286.932C246.145 286.526 244.452 285.894 243.188 285.036C241.969 284.133 241.043 282.982 240.411 281.583C239.824 280.183 239.441 278.513 239.26 276.571C239.125 274.63 239.057 272.373 239.057 269.799C239.057 266.684 239.192 263.998 239.463 261.741C239.779 259.484 240.456 257.633 241.495 256.188C242.533 254.743 244.136 253.682 246.303 253.005C248.515 252.283 251.494 251.922 255.242 251.922C258.266 251.922 260.727 252.148 262.623 252.599C264.519 253.005 266.009 253.66 267.092 254.563C268.221 255.421 269.011 256.549 269.462 257.949C269.959 259.348 270.275 261.041 270.411 263.028C270.546 264.969 270.614 267.226 270.614 269.799V272.441H249.824C249.824 273.975 249.892 275.217 250.027 276.165C250.163 277.068 250.524 277.745 251.111 278.197C251.698 278.648 252.601 278.964 253.819 279.145C255.038 279.28 256.731 279.348 258.898 279.348C259.756 279.348 260.772 279.325 261.946 279.28C263.12 279.235 264.338 279.167 265.603 279.077C266.912 278.987 268.131 278.896 269.259 278.806V286.391C268.266 286.616 267.047 286.819 265.603 287C264.203 287.181 262.691 287.316 261.065 287.406C259.44 287.497 257.86 287.542 256.325 287.542ZM260.388 267.903V266.82C260.388 265.195 260.298 263.908 260.117 262.96C259.982 262.012 259.711 261.312 259.305 260.861C258.944 260.364 258.424 260.048 257.747 259.913C257.07 259.777 256.212 259.709 255.174 259.709C254 259.709 253.052 259.8 252.33 259.98C251.652 260.116 251.133 260.432 250.772 260.928C250.411 261.425 250.163 262.147 250.027 263.095C249.892 264.043 249.824 265.285 249.824 266.82H261.539L260.388 267.903ZM291.718 300.95C290.273 300.95 288.761 300.905 287.18 300.815C285.645 300.769 284.201 300.679 282.846 300.544C281.492 300.408 280.363 300.25 279.46 300.07V292.553C280.409 292.598 281.424 292.621 282.508 292.621C283.591 292.666 284.675 292.688 285.758 292.688C286.887 292.688 287.948 292.688 288.941 292.688C291.153 292.688 292.869 292.598 294.088 292.417C295.352 292.282 296.277 291.943 296.864 291.402C297.496 290.905 297.88 290.138 298.015 289.099C298.151 288.106 298.219 286.752 298.219 285.036V282.598H297.677C297 283.772 296.164 284.675 295.171 285.307C294.223 285.894 293.162 286.3 291.988 286.526C290.815 286.752 289.551 286.865 288.196 286.865C286.119 286.865 284.359 286.594 282.914 286.052C281.469 285.465 280.273 284.54 279.325 283.275C278.422 281.966 277.768 280.183 277.361 277.926C276.955 275.668 276.752 272.847 276.752 269.461C276.752 266.03 276.955 263.186 277.361 260.928C277.813 258.671 278.49 256.888 279.393 255.579C280.296 254.269 281.469 253.344 282.914 252.802C284.359 252.215 286.097 251.922 288.128 251.922C289.393 251.922 290.634 252.057 291.853 252.328C293.117 252.554 294.268 253.005 295.307 253.682C296.39 254.36 297.27 255.353 297.948 256.662H298.489L298.76 252.464H309.121V283.072C309.121 286.097 308.963 288.738 308.647 290.995C308.331 293.253 307.609 295.104 306.48 296.548C305.397 298.038 303.681 299.144 301.334 299.867C299.031 300.589 295.826 300.95 291.718 300.95ZM292.936 277.993C294.246 277.993 295.239 277.858 295.916 277.587C296.638 277.271 297.158 276.729 297.474 275.962C297.79 275.24 297.993 274.359 298.083 273.321C298.173 272.237 298.219 270.951 298.219 269.461C298.219 268.016 298.173 266.752 298.083 265.669C298.038 264.585 297.835 263.705 297.474 263.028C297.158 262.17 296.638 261.606 295.916 261.335C295.239 261.019 294.246 260.861 292.936 260.861C291.718 260.861 290.747 260.951 290.025 261.132C289.302 261.267 288.761 261.606 288.399 262.147C288.083 262.689 287.88 263.547 287.79 264.721C287.7 265.894 287.654 267.474 287.654 269.461C287.654 271.447 287.7 273.005 287.79 274.133C287.88 275.262 288.083 276.12 288.399 276.707C288.761 277.249 289.302 277.61 290.025 277.79C290.747 277.926 291.718 277.993 292.936 277.993ZM332.685 287.542C329.615 287.542 327.064 287.361 325.032 287C323.001 286.639 321.398 286.052 320.224 285.239C319.051 284.427 318.193 283.343 317.651 281.989C317.109 280.634 316.748 278.941 316.568 276.91C316.432 274.878 316.364 272.463 316.364 269.664C316.364 266.865 316.432 264.472 316.568 262.486C316.748 260.454 317.109 258.761 317.651 257.407C318.193 256.053 319.051 254.969 320.224 254.156C321.398 253.344 323.001 252.78 325.032 252.464C327.064 252.102 329.615 251.922 332.685 251.922C335.8 251.922 338.373 252.102 340.405 252.464C342.436 252.78 344.039 253.344 345.213 254.156C346.386 254.969 347.244 256.053 347.786 257.407C348.328 258.761 348.666 260.454 348.802 262.486C348.982 264.472 349.073 266.865 349.073 269.664C349.073 272.463 348.982 274.878 348.802 276.91C348.666 278.941 348.328 280.634 347.786 281.989C347.244 283.343 346.386 284.427 345.213 285.239C344.039 286.052 342.436 286.639 340.405 287C338.373 287.361 335.8 287.542 332.685 287.542ZM332.685 279.28C334.039 279.28 335.1 279.19 335.867 279.009C336.635 278.829 337.177 278.422 337.493 277.79C337.809 277.158 337.989 276.188 338.034 274.878C338.125 273.569 338.17 271.831 338.17 269.664C338.17 267.497 338.125 265.782 338.034 264.517C337.989 263.253 337.809 262.305 337.493 261.673C337.177 261.041 336.635 260.635 335.867 260.454C335.1 260.274 334.039 260.183 332.685 260.183C331.33 260.183 330.269 260.274 329.502 260.454C328.78 260.635 328.26 261.041 327.944 261.673C327.628 262.305 327.425 263.253 327.335 264.517C327.29 265.782 327.267 267.497 327.267 269.664C327.267 271.831 327.29 273.569 327.335 274.878C327.425 276.188 327.628 277.158 327.944 277.79C328.26 278.422 328.78 278.829 329.502 279.009C330.269 279.19 331.33 279.28 332.685 279.28ZM325.506 247.994V247.656L331.737 238.175H342.233V238.514L333.226 247.994H325.506ZM370.217 287.542C367.328 287.542 364.958 287.293 363.107 286.797C361.256 286.255 359.788 285.51 358.705 284.562C357.621 283.569 356.831 282.35 356.335 280.905C355.838 279.461 355.522 277.813 355.387 275.962C355.251 274.066 355.184 271.989 355.184 269.732C355.184 267.52 355.251 265.488 355.387 263.637C355.522 261.786 355.861 260.138 356.403 258.694C356.944 257.204 357.734 255.962 358.773 254.969C359.856 253.976 361.301 253.231 363.107 252.734C364.958 252.193 367.305 251.922 370.149 251.922C371.955 251.922 373.761 252.012 375.567 252.193C377.418 252.373 379.066 252.644 380.51 253.005V260.657C379.607 260.522 378.434 260.409 376.989 260.319C375.589 260.229 374.28 260.183 373.061 260.183C371.481 260.183 370.24 260.319 369.337 260.59C368.434 260.815 367.757 261.267 367.305 261.944C366.854 262.576 366.538 263.524 366.357 264.788C366.222 266.052 366.154 267.7 366.154 269.732C366.154 271.763 366.222 273.434 366.357 274.743C366.538 276.007 366.854 276.978 367.305 277.655C367.757 278.287 368.456 278.716 369.404 278.941C370.353 279.167 371.594 279.28 373.129 279.28C374.213 279.28 375.431 279.235 376.786 279.145C378.185 279.054 379.517 278.941 380.781 278.806V286.458C379.291 286.774 377.598 287.023 375.702 287.203C373.806 287.429 371.978 287.542 370.217 287.542ZM387.546 245.421V236.685H398.719V245.421H387.546ZM387.681 287V252.464H398.652V287H387.681ZM422.227 287.542C419.157 287.542 416.606 287.361 414.574 287C412.543 286.639 410.94 286.052 409.766 285.239C408.593 284.427 407.735 283.343 407.193 281.989C406.651 280.634 406.29 278.941 406.11 276.91C405.974 274.878 405.906 272.463 405.906 269.664C405.906 266.865 405.974 264.472 406.11 262.486C406.29 260.454 406.651 258.761 407.193 257.407C407.735 256.053 408.593 254.969 409.766 254.156C410.94 253.344 412.543 252.78 414.574 252.464C416.606 252.102 419.157 251.922 422.227 251.922C425.342 251.922 427.915 252.102 429.946 252.464C431.978 252.78 433.581 253.344 434.755 254.156C435.928 254.969 436.786 256.053 437.328 257.407C437.87 258.761 438.208 260.454 438.344 262.486C438.524 264.472 438.614 266.865 438.614 269.664C438.614 272.463 438.524 274.878 438.344 276.91C438.208 278.941 437.87 280.634 437.328 281.989C436.786 283.343 435.928 284.427 434.755 285.239C433.581 286.052 431.978 286.639 429.946 287C427.915 287.361 425.342 287.542 422.227 287.542ZM422.227 279.28C423.581 279.28 424.642 279.19 425.409 279.009C426.177 278.829 426.719 278.422 427.035 277.79C427.351 277.158 427.531 276.188 427.576 274.878C427.667 273.569 427.712 271.831 427.712 269.664C427.712 267.497 427.667 265.782 427.576 264.517C427.531 263.253 427.351 262.305 427.035 261.673C426.719 261.041 426.177 260.635 425.409 260.454C424.642 260.274 423.581 260.183 422.227 260.183C420.872 260.183 419.811 260.274 419.044 260.454C418.321 260.635 417.802 261.041 417.486 261.673C417.17 262.305 416.967 263.253 416.877 264.517C416.832 265.782 416.809 267.497 416.809 269.664C416.809 271.831 416.832 273.569 416.877 274.878C416.967 276.188 417.17 277.158 417.486 277.79C417.802 278.422 418.321 278.829 419.044 279.009C419.811 279.19 420.872 279.28 422.227 279.28ZM459.285 287.542C457.84 287.542 456.26 287.497 454.545 287.406C452.874 287.316 451.227 287.203 449.601 287.068C448.021 286.932 446.599 286.774 445.335 286.594V278.941C446.057 278.987 446.87 279.054 447.773 279.145C448.721 279.235 449.692 279.303 450.685 279.348C451.678 279.393 452.626 279.438 453.529 279.483C454.477 279.483 455.335 279.483 456.102 279.483C458.224 279.483 459.736 279.416 460.639 279.28C461.587 279.145 462.174 278.874 462.4 278.467C462.671 278.016 462.806 277.429 462.806 276.707C462.806 275.984 462.716 275.465 462.536 275.149C462.4 274.833 462.084 274.608 461.587 274.472C461.136 274.337 460.346 274.201 459.217 274.066L451.159 273.05C449.218 272.779 447.75 272.215 446.757 271.357C445.764 270.454 445.087 269.258 444.726 267.768C444.41 266.233 444.251 264.45 444.251 262.418C444.251 260.025 444.613 258.152 445.335 256.798C446.057 255.398 447.051 254.36 448.315 253.682C449.624 252.96 451.159 252.486 452.919 252.26C454.725 252.035 456.644 251.922 458.676 251.922C460.12 251.922 461.61 251.967 463.145 252.057C464.68 252.148 466.147 252.283 467.547 252.464C468.946 252.599 470.097 252.757 471 252.938V260.522C469.872 260.432 468.675 260.341 467.411 260.251C466.192 260.161 465.019 260.093 463.89 260.048C462.761 260.003 461.813 259.98 461.046 259.98C459.24 259.98 457.84 260.025 456.847 260.116C455.899 260.206 455.244 260.432 454.883 260.793C454.567 261.154 454.409 261.741 454.409 262.554C454.409 263.186 454.454 263.682 454.545 264.043C454.68 264.359 454.974 264.585 455.425 264.721C455.877 264.856 456.576 264.991 457.524 265.127L465.651 266.143C467.186 266.323 468.495 266.684 469.578 267.226C470.662 267.768 471.474 268.739 472.016 270.138C472.603 271.538 472.896 273.637 472.896 276.436C472.896 278.964 472.558 280.973 471.881 282.463C471.249 283.908 470.323 285.014 469.104 285.781C467.885 286.503 466.441 286.977 464.77 287.203C463.145 287.429 461.317 287.542 459.285 287.542ZM479.871 287V277.181H491.451V287H479.871Z" fill="#E5E5E5"/>
<path d="M40.6775 104.114L6.13185 91.2454V81.1408L40.6775 68.1862V78.2908L17.8774 86.1499L40.6775 94.009V104.114Z" fill="#FF4800"/>
<path d="M519.045 288.114V278.009L541.759 270.15L519.045 262.291V252.186L553.591 265.141V275.245L519.045 288.114Z" fill="#FF4800"/>
</svg>
