<svg width="89" height="29" viewBox="0 0 89 29" fill="none" xmlns="http://www.w3.org/2000/svg">
<path d="M0.59412 16.682H3.02849C3.15937 16.682 3.26407 16.7857 3.29025 16.9152C3.42113 18.9099 4.93933 19.5834 7.11194 19.5834C9.15367 19.5834 10.3578 18.9876 10.3578 17.4592C10.3578 15.6718 8.70868 15.3609 6.40519 14.791C2.97614 13.9102 0.98676 12.9517 0.98676 10.2835C0.98676 7.45983 3.23789 6.13867 6.77165 6.13867C10.8289 6.13867 12.5827 7.84841 12.7398 10.3612C12.7398 10.4907 12.6351 10.6203 12.5042 10.6203H10.1222C9.9913 10.6203 9.88659 10.5166 9.88659 10.3871C9.78189 9.04004 8.70868 8.39242 6.7193 8.39242C5.22727 8.39242 4.04935 8.72918 4.04935 10.0503C4.04935 11.3456 5.12257 11.7083 7.269 12.2523C10.4101 13.0812 13.3942 13.8584 13.3942 17.2002C13.3942 19.9461 11.3263 21.8372 6.98106 21.8372C2.66202 21.8372 0.515592 19.9979 0.384712 16.9152C0.33236 16.7857 0.437064 16.682 0.59412 16.682Z" fill="#660066"/>
<path d="M28.5769 13.1598V21.3976C28.5769 21.5271 28.4722 21.6567 28.3413 21.6567H25.8808C25.7499 21.6567 25.6452 21.553 25.6452 21.3976V13.4707C25.6452 10.2066 24.4411 8.6005 21.9544 8.6005C19.1274 8.6005 17.9757 10.2066 17.9757 13.6261V21.3976C17.9757 21.5271 17.871 21.6567 17.7401 21.6567H15.2795C15.1486 21.6567 15.0439 21.553 15.0439 21.3976V0.233146C15.0439 0.10362 15.1486 0 15.2795 0H17.7401C17.871 0 17.9757 0.10362 17.9757 0.233146V8.1342C19.0489 6.73533 20.6718 6.13951 22.6873 6.13951C26.9017 6.13951 28.5769 8.65231 28.5769 13.1598Z" fill="#660066"/>
<path d="M42.1883 13.9879C42.1883 10.5944 40.4083 8.59966 37.4504 8.59966C34.5187 8.59966 32.7388 10.5944 32.7388 13.9879C32.7388 17.4074 34.5187 19.428 37.4504 19.428C40.4083 19.428 42.1883 17.4074 42.1883 13.9879ZM45.3294 21.6558H43.1044C42.9736 21.6558 42.895 21.5781 42.8689 21.4486L42.4239 19.1948C41.2198 20.9564 39.3351 21.8631 36.9269 21.8631C32.4246 21.8631 29.7285 18.6508 29.7285 13.9879C29.7285 9.35091 32.4246 6.13867 36.9269 6.13867C39.3089 6.13867 41.2198 7.01944 42.3715 8.70328L42.7118 6.55315C42.738 6.42363 42.8427 6.34591 42.9474 6.34591H44.9368C45.0676 6.34591 45.1723 6.44953 45.1723 6.57906V18.3141V18.34L45.5912 21.345C45.5912 21.5263 45.4865 21.6558 45.3294 21.6558Z" fill="#660066"/>
<path d="M47.8423 21.3982V9.79273V9.76683L47.7638 8.86015L47.4497 6.63231C47.4235 6.47688 47.5544 6.34735 47.6852 6.34735H49.884C49.9887 6.34735 50.0934 6.42507 50.1196 6.52869L50.6431 8.78243C51.4022 7.04679 52.8419 6.16602 55.2239 6.16602H55.7474C55.8783 6.16602 55.983 6.26964 55.983 6.39916V8.96377C55.983 9.09329 55.8783 9.19691 55.7474 9.19691H55.0669C51.6116 9.19691 50.7478 10.2331 50.7478 14.1707V21.3464C50.7478 21.4759 50.6431 21.5796 50.5122 21.5796H48.0779C47.947 21.6573 47.8423 21.5277 47.8423 21.3982Z" fill="#660066"/>
<path d="M70.4056 14.0397C70.4056 10.5943 68.5732 8.59966 65.6677 8.59966C62.736 8.59966 60.9037 10.5943 60.9037 14.0397C60.9037 17.4074 62.736 19.4021 65.6677 19.4021C68.5732 19.4021 70.4056 17.4074 70.4056 14.0397ZM73.4158 14.0397C73.4158 18.6508 70.7197 21.8631 66.2959 21.8631C63.9663 21.8631 62.1078 21.0082 60.9037 19.4021V27.7176C60.9037 27.8731 60.7728 28.0026 60.6157 28.0026H58.2599C58.1028 28.0026 57.972 27.8731 57.972 27.7176V9.63586C57.972 9.60996 57.972 9.60996 57.972 9.58405L57.5531 6.65677C57.527 6.47544 57.6578 6.32001 57.8411 6.32001H59.9613C60.0922 6.32001 60.2231 6.42363 60.2493 6.55315L60.6943 8.78099C60.6943 8.8069 60.7466 8.8328 60.7728 8.8069C61.9769 7.07126 63.8877 6.13867 66.2959 6.13867C70.7197 6.13867 73.4158 9.3509 73.4158 14.0397Z" fill="#660066"/>
<path d="M85.5355 6.34766H87.9437C88.0745 6.34766 88.1792 6.45128 88.1792 6.5808V19.2225C88.1792 25.4915 84.8811 27.6676 80.1432 27.6676H77.9183C77.7874 27.6676 77.6827 27.5639 77.6827 27.4344V25.5692C77.6827 25.4397 77.7874 25.3361 77.9183 25.3361H80.1694C83.3629 25.3361 85.2737 23.7818 85.2737 20.0256V19.2484C84.2267 20.5437 82.6823 21.2431 80.6667 21.2431C76.5309 21.2431 74.8818 18.7821 74.8818 14.3005V6.60671C74.8818 6.47718 74.9865 6.37356 75.1174 6.37356H77.5518C77.6827 6.37356 77.7874 6.47718 77.7874 6.60671V14.0933C77.7874 17.3832 78.9915 18.8339 81.3997 18.8339C84.122 18.8339 85.2475 17.0465 85.2475 14.0415V6.60671C85.2999 6.47718 85.4046 6.34766 85.5355 6.34766Z" fill="#660066"/>
<path d="M86.792 0.620878C86.7396 0.491352 86.6087 0.413637 86.4779 0.465447C85.8235 0.646783 83.9126 1.13898 81.5306 1.13898C79.1748 1.13898 77.2377 0.646783 76.5833 0.465447C76.4524 0.439542 76.3216 0.491352 76.2692 0.620878L75.7195 2.40833C75.6672 2.53786 75.7457 2.66738 75.8766 2.71919C76.5833 2.92643 78.8345 3.49634 81.5044 3.49634C84.1744 3.49634 86.4255 2.92643 87.1323 2.71919C87.2631 2.69329 87.3417 2.53786 87.2893 2.40833L86.792 0.620878Z" fill="#FF4700"/>
</svg>
