<svg width="181" height="59" viewBox="0 0 181 59" fill="none" xmlns="http://www.w3.org/2000/svg">
  <path d="M0.458918 34.7926H5.46808C5.73739 34.7926 5.95284 35.0058 6.0067 35.2724C6.27601 39.3768 9.40001 40.7627 13.8705 40.7627C18.0718 40.7627 20.5494 39.5367 20.5494 36.3918C20.5494 32.7137 17.1561 32.0741 12.4163 30.9014C5.36036 29.089 1.26685 27.1168 1.26685 21.6264C1.26685 15.8162 5.89898 13.0977 13.1703 13.0977C21.519 13.0977 25.1277 16.6158 25.4509 21.7863C25.4509 22.0528 25.2354 22.3193 24.9661 22.3193H20.0647C19.7954 22.3193 19.5799 22.1061 19.5799 21.8396C19.3645 19.0678 17.1561 17.7352 13.0626 17.7352C9.99249 17.7352 7.5687 18.4281 7.5687 21.1466C7.5687 23.8119 9.77704 24.5581 14.1937 25.6775C20.6572 27.3833 26.7974 28.9824 26.7974 35.8587C26.7974 41.509 22.5423 45.4002 13.6012 45.4002C4.71401 45.4002 0.297332 41.6156 0.0280222 35.2724C-0.0797018 35.0058 0.135746 34.7926 0.458918 34.7926Z" fill="white"/>
  <path d="M58.0371 27.5455V44.4964C58.0371 44.7629 57.8216 45.0294 57.5523 45.0294H52.4893C52.22 45.0294 52.0045 44.8162 52.0045 44.4964V28.1852C52.0045 21.4688 49.5269 18.1639 44.41 18.1639C38.5929 18.1639 36.223 21.4688 36.223 28.505V44.4964C36.223 44.7629 36.0075 45.0294 35.7382 45.0294H30.6752C30.4059 45.0294 30.1904 44.8162 30.1904 44.4964V0.946538C30.1904 0.680015 30.4059 0.466797 30.6752 0.466797H35.7382C36.0075 0.466797 36.223 0.680015 36.223 0.946538V17.2044C38.4313 14.326 41.7708 13.1 45.9181 13.1C54.5899 13.1 58.0371 18.2705 58.0371 27.5455Z" fill="white"/>
  <path d="M86.0455 29.2489C86.0455 22.266 82.3829 18.1616 76.2965 18.1616C70.264 18.1616 66.6014 22.266 66.6014 29.2489C66.6014 36.2851 70.264 40.4429 76.2965 40.4429C82.3829 40.4429 86.0455 36.2851 86.0455 29.2489ZM92.509 45.0271H87.9307C87.6614 45.0271 87.4998 44.8672 87.4459 44.6007L86.5303 39.9632C84.0526 43.5879 80.1746 45.4535 75.2193 45.4535C65.955 45.4535 60.4072 38.8438 60.4072 29.2489C60.4072 19.7074 65.955 13.0977 75.2193 13.0977C80.1207 13.0977 84.0526 14.91 86.4226 18.3748L87.1228 13.9505C87.1766 13.684 87.3921 13.5241 87.6075 13.5241H91.701C91.9703 13.5241 92.1858 13.7373 92.1858 14.0038V38.1508V38.2041L93.0476 44.3874C93.0476 44.7606 92.8321 45.0271 92.509 45.0271Z" fill="white"/>
  <path d="M97.6801 44.4974V20.6169V20.5636L97.5185 18.698L96.8722 14.1138C96.8183 13.794 97.0876 13.5274 97.3569 13.5274H101.881C102.097 13.5274 102.312 13.6873 102.366 13.9006L103.443 18.5381C105.005 14.9667 107.968 13.1543 112.869 13.1543H113.946C114.216 13.1543 114.431 13.3675 114.431 13.634V18.9112C114.431 19.1777 114.216 19.3909 113.946 19.3909H112.546C105.436 19.3909 103.659 21.5231 103.659 29.6254V44.3908C103.659 44.6573 103.443 44.8705 103.174 44.8705H98.1649C97.8955 45.0304 97.6801 44.7639 97.6801 44.4974Z" fill="white"/>
  <path d="M144.108 29.3556C144.108 22.266 140.338 18.1616 134.359 18.1616C128.327 18.1616 124.556 22.266 124.556 29.3556C124.556 36.2851 128.327 40.3896 134.359 40.3896C140.338 40.3896 144.108 36.2851 144.108 29.3556ZM150.302 29.3556C150.302 38.8438 144.755 45.4535 135.652 45.4535C130.858 45.4535 127.034 43.6945 124.556 40.3896V57.5004C124.556 57.8202 124.287 58.0867 123.964 58.0867H119.116C118.793 58.0867 118.524 57.8202 118.524 57.5004V20.2938C118.524 20.2405 118.524 20.2405 118.524 20.1872L117.662 14.1637C117.608 13.7906 117.878 13.4708 118.255 13.4708H122.617C122.887 13.4708 123.156 13.684 123.21 13.9505L124.126 18.5347C124.126 18.588 124.233 18.6413 124.287 18.588C126.765 15.0166 130.697 13.0977 135.652 13.0977C144.755 13.0977 150.302 19.7074 150.302 29.3556Z" fill="white"/>
  <path d="M175.241 13.5254H180.196C180.466 13.5254 180.681 13.7386 180.681 14.0051V40.0178C180.681 52.9175 173.895 57.3951 164.146 57.3951H159.567C159.298 57.3951 159.083 57.1818 159.083 56.9153V53.0774C159.083 52.8109 159.298 52.5977 159.567 52.5977H164.199C170.771 52.5977 174.703 49.3994 174.703 41.6702V40.0711C172.548 42.7363 169.37 44.1755 165.223 44.1755C156.713 44.1755 153.319 39.1116 153.319 29.8899V14.0584C153.319 13.7919 153.535 13.5787 153.804 13.5787H158.813C159.083 13.5787 159.298 13.7919 159.298 14.0584V29.4635C159.298 36.2331 161.776 39.2182 166.731 39.2182C172.333 39.2182 174.649 35.5402 174.649 29.3569V14.0584C174.756 13.7919 174.972 13.5254 175.241 13.5254Z" fill="white"/>
  <path d="M177.826 1.74385C177.718 1.47732 177.449 1.31741 177.18 1.42402C175.833 1.79715 171.901 2.80994 167 2.80994C162.152 2.80994 158.167 1.79715 156.82 1.42402C156.551 1.37071 156.281 1.47732 156.174 1.74385L155.043 5.42186C154.935 5.68839 155.096 5.95491 155.366 6.06152C156.82 6.48795 161.452 7.66065 166.946 7.66065C172.44 7.66065 177.072 6.48795 178.526 6.06152C178.796 6.00821 178.957 5.68839 178.85 5.42186L177.826 1.74385Z" fill="#FF4700"/>
</svg>