<svg width="62" height="46" viewBox="0 0 62 46" fill="none" xmlns="http://www.w3.org/2000/svg">
<path d="M58.4455 0.926687C58.2437 0.253952 57.5037 -0.149689 56.831 0.0521318C53.4 1.06123 43.2417 3.6849 30.7289 3.6849C18.216 3.6849 7.99041 1.06123 4.55946 0.0521318C3.88672 -0.149689 3.14671 0.253952 2.94489 0.926687L0.0521318 10.5468C-0.149689 11.2195 0.253952 11.9595 0.926687 12.1614C4.694 13.2377 16.5341 16.3996 30.7289 16.3996C44.9236 16.3996 56.6964 13.305 60.531 12.1614C61.2038 11.9595 61.6074 11.2195 61.4056 10.5468L58.4455 0.926687Z" fill="#FF4800"/>
<path d="M58.4455 44.1166C58.2437 44.7893 57.5037 45.1929 56.831 44.9911C53.4 43.982 43.2417 41.3584 30.7289 41.3584C18.216 41.3584 8.05768 43.982 4.62673 44.9911C3.954 45.1929 3.21399 44.7893 3.01217 44.1166L0.0521318 34.5637C-0.149689 33.891 0.253952 33.151 0.926687 32.9492C4.694 31.8728 16.5341 28.7109 30.7289 28.7109C44.9236 28.7109 56.6964 31.8055 60.531 32.9492C61.2038 33.151 61.6074 33.891 61.4056 34.5637L58.4455 44.1166Z" fill="#E5E5E5"/>
</svg>
